<?xml version="1.0" encoding="UTF-8" standalone="no"?>
<svg
   xmlns:dc="http://purl.org/dc/elements/1.1/"
   xmlns:cc="http://creativecommons.org/ns#"
   xmlns:rdf="http://www.w3.org/1999/02/22-rdf-syntax-ns#"
   xmlns:svg="http://www.w3.org/2000/svg"
   xmlns="http://www.w3.org/2000/svg"
   xmlns:xlink="http://www.w3.org/1999/xlink"
   xmlns:sodipodi="http://sodipodi.sourceforge.net/DTD/sodipodi-0.dtd"
   xmlns:inkscape="http://www.inkscape.org/namespaces/inkscape"
   height="800"
   width="600"
   version="1.1"
   id="svg3095"
   inkscape:version="0.91 r13725"
   sodipodi:docname="catchThatBusTrain_src.svg">
  <metadata
     id="metadata3203">
    <rdf:RDF>
      <cc:Work
         rdf:about="">
        <dc:format>image/svg+xml</dc:format>
        <dc:type
           rdf:resource="http://purl.org/dc/dcmitype/StillImage" />
        <dc:title />
      </cc:Work>
    </rdf:RDF>
  </metadata>
  <sodipodi:namedview
     pagecolor="#ffffff"
     bordercolor="#666666"
     borderopacity="1"
     objecttolerance="10"
     gridtolerance="10"
     guidetolerance="10"
     inkscape:pageopacity="0"
     inkscape:pageshadow="2"
     inkscape:window-width="1248"
     inkscape:window-height="756"
     id="namedview3201"
     showgrid="true"
     inkscape:zoom="1.5940572"
     inkscape:cx="158.4749"
     inkscape:cy="196.1888"
     inkscape:window-x="41"
     inkscape:window-y="0"
     inkscape:window-maximized="0"
     inkscape:current-layer="svg3095"
     showguides="false"
     inkscape:snap-to-guides="false"
     inkscape:snap-grids="true"
     inkscape:snap-others="true"
     inkscape:snap-nodes="true"
     inkscape:snap-bbox="true"
     inkscape:snap-bbox-midpoints="false">
    <inkscape:grid
       type="xygrid"
       id="grid3396" />
  </sodipodi:namedview>
  <defs
     id="defs3097">
    <path
       id="bkn"
       d="M33.469,15v11.938h3.125v-11.938h-3.125zm-13.813,3.406l-2.656,1.656,6.312,10.126,2.657-1.657-6.313-10.125zm30.938,0.313l-4.719,8.531c-2.986,0.663-5.776,1.865-8.25,3.5-0.847-0.119-1.715-0.188-2.594-0.188-10.675,0-19.312,8.695-19.312,19.407,0,1.947,0.305,3.825,0.843,5.593-0.978,1.235-1.775,2.642-2.312,4.157l-0.688-1.063-10.062,6.344,0.3438,0.562c-2.3766,2.331-3.8438,5.561-3.8438,9.126,0,3.52,1.6295,6.439,4.0938,8.093,2.4642,1.654,5.5401,2.219,8.7182,2.219h20.469,3.125,9.125,17.844,16.375c11.15,0,20.25-9.098,20.25-20.25s-9.099-20.219-20.25-20.219c-1.607,0-3.124,0.264-4.594,0.625-2.866-10.607-12.411-18.5-23.906-18.5-0.499,0-0.977,0.034-1.469,0.063l3.563-6.469-2.75-1.531zm-44.532,11.375l-1.5313,2.75,10.407,5.781,1.5-2.75-10.376-5.781zm45.188,1.344c10.088,0,18.319,7.377,19.844,17.031l0.468,2.906,2.75-1.031c1.734-0.658,3.538-1.063,5.438-1.063,8.58,0,15.5,6.89,15.5,15.469s-6.921,15.5-15.5,15.5h-16.375-17.844-32.719c-2.576,0-4.757-0.53-6.062-1.406s-2-1.922-2-4.156c0-4.463,3.5946-8.032,8.062-8.032,0.74,0,1.486,0.128,2.313,0.375l3.063,0.938v-3.219c0-0.288,0.007-0.458,0-0.5,0.133-5.302,4.412-9.5,9.75-9.5-0.078,0,0.118,0.026,0.656,0.062l2.656,0.188-0.125-2.656c-0.029-0.651-0.063-0.871-0.063-0.719,0-11.178,9.002-20.187,20.188-20.187zm-51.25,16.062v3.125h11.906v-3.125h-11.906z" />
    <path
       id="blizzard"
       d="m40.969,0.0010566c-1.0006,0.015157-2.0151,0.19516-3.0312,0.56249-0.43506,0.15727-1.228,0.5569-1.4062,0.68749-0.06475,0.047442-0.04471,0.094866,0.40625,0.90624l0.5,0.87499,0.375-0.21875c1.0499-0.55498,2.0713-0.78254,3.3125-0.78124,1.8787,0.00185,3.6166,0.6879,4.9375,2,0.9352,0.92897,1.6147,2.102,1.9062,3.3125,0.41842,1.7371,0.19508,3.5043-0.625,5.0624-1.0854,2.0622-3.1458,3.4496-5.5,3.7187-0.22746,0.02601-7.1115,0.03102-21.094,0.03125h-20.75v2h21.062l21.062-0.03125,0.46875-0.09375c1.9627-0.36965,3.611-1.2099,4.9375-2.5312,1.5461-1.54,2.4586-3.5881,2.625-5.8437,0.11542-1.5649-0.24926-3.3615-1-4.7812-1.111-2.099-2.963-3.6868-5.157-4.4063-1.026-0.3364-2.031-0.4839-3.031-0.46874zm23.781,0.125c-1.782,0.18419-3.361,0.71027-4.844,1.5624-2.428,1.3953-4.342,3.6561-5.281,6.2812-0.07242,0.20257-0.10195,0.3667-0.09375,0.375,0.0083,0.00827,0.40346,0.16682,0.90625,0.34375,0.70479,0.248,0.94506,0.28735,0.96875,0.25,0.0169-0.026648,0.05993-0.11557,0.09375-0.21875,0.08655-0.26389,0.33268-0.85474,0.5-1.1875,1.1642-2.3151,3.217-4.1125,5.6875-4.9374,1.0388-0.34686,2.0544-0.50129,3.125-0.49999,1.6064,0.00177,2.9752,0.32514,4.4062,1.0312,1.4656,0.72313,2.6236,1.6894,3.5625,2.9687,0.81055,1.1044,1.3278,2.2157,1.6562,3.5312,1.1791,4.7224-1.3093,9.6519-5.8438,11.531-1.331,0.55162-2.9948,0.8216-4.4062,0.71874-0.35108-0.02559-11.234-0.06227-32.844-0.0625h-32.344v2.0312l32.625,0.03125c17.948,0.0052,32.867-0.0051,33.156,0,2.8002,0.0493,5.8234-1.0739,7.9375-2.9687,1.1943-1.0704,2.0605-2.2173,2.75-3.5937,2.022-4.035,1.598-8.8132-1.093-12.437-1.884-2.537-4.614-4.1574-7.813-4.6562-0.625-0.09759-2.192-0.15786-2.812-0.09374zm-64.75,25.781v2h12.719c8.6705,0,12.845,0.0043,13.094,0.03125,2.1221,0.23064,4.0485,1.4088,5.1875,3.1562,0.46371,0.71139,0.85868,1.6855,1.0312,2.5312,0.31197,1.5289,0.09489,3.1277-0.625,4.5625-0.75782,1.5104-2.0875,2.7443-3.6562,3.375-1.9089,0.76738-3.985,0.66985-5.8438-0.25-0.2748-0.13599-0.4916-0.22705-0.5-0.21875-0.0083,0.0083-0.24197,0.38048-0.5,0.84374-0.42821,0.76868-0.46506,0.86205-0.40625,0.90624,0.11508,0.08644,0.84816,0.43906,1.1562,0.56249,0.80416,0.32216,1.7522,0.54006,2.625,0.62499,0.46505,0.04525,1.6095,0.0076,2.0625-0.0625,1.598-0.24716,2.966-0.78627,4.2188-1.7187,0.48023-0.35744,1.4115-1.3187,1.7812-1.8125,2.2148-2.9576,2.4239-6.9016,0.53125-10.094-0.70833-1.1946-1.5739-2.1151-2.7188-2.875-1.1243-0.74629-2.1973-1.1611-3.6562-1.4375-0.41249-0.07812-0.39749-0.08181-13.438-0.09375l-13.062-0.029zm68.438,2.4687-3.0312,1.9687,0,9.4686-5.2812-3-2.6875,1.5625,0,3.3125,7.8438,4.4687,0,6.2187-5.8438-3.125,0.03125,6.4374-5.5625-3.1875,0.03125-9.0937-3.0625-1.7812-2.5,1.6875,0,6.0937-8.25-4.7812-3.2188,1.6562,0,3.7812,8.375,4.5625-5.25,2.9375,0,3.4375,2.9062,1.4687,7.7812-4.5625,5.375,3.0937-5.375,3.3437,5.5312,3.1562,0.125,0.09375-5.4062,3.125-7.75-4.5937-3.0938,1.6875,0,3.4687,5.4375,2.7187-8.6562,4.7187,0,3.7812,3.5,1.5,8.25-4.6562,0,5.9687,2.5312,1.6562,2.9688-1.8437,0-8.9062,5.4375-3.1562,0,6.5937,5.6875-3.6562,0,6.2187-7.8438,4.4687,0,3.3125,2.6875,1.5625,5.2812-2.9687,0,9.4374l3.033,1.968,3.062-1.969v-9.4374l5.25,2.9687,2.6875-1.375v-3.5l-7.8438-4.4687v-6.2187l5.5625,3.375v-6.1874l5.7812,3.2812v8.9687l2.7812,1.5625,2.8125-1.5625v-5.9062l7.8125,4.4687,3.375-1.5625v-3.7187l-7.9688-4.7187,5-2.8125v-3.2187l-2.5625-1.8125-7.9688,4.4687-5.6875-3,5.5-3.1562-5.3438-3.3125,5.5312-3.5,7.9688,4.7187,2.6875-1.5v-3.375l-5.1875-2.9062,8.3125-4.7187v-3.5312l-2.9688-1.8125-8.5,4.5937v-6.2187l-2.9062-1.2812-2.75,1.2812v9.7186l-5.7188,3.125v-6.7499l-5.5312,3.375v-6.2187l8.0938-4.5937v-2.9687l-2.75-1.8437-5.4688,3.0625v-9.4686l-3.0625-1.9687zm-2.5,31.562,5.2812,0,2.5625,4.4687-2.4375,4.1562-5.2812,0-2.8125-4.1562,2.6875-4.4687z" />
    <path
       id="cold"
       d="M50,3.7812c-2.236,0.0561-4.242,0.829-5.812,2.125-1.961,1.617-3.219,4.0237-3.219,6.8438v55.812c-3.922,2.948-6.232,7.407-6.25,12.282-0.016,6.461,3.926,11.869,9.469,14.156,1.794,0.741,3.729,1.176,5.781,1.188,1.847,0.01,3.627-0.31,5.25-0.907,5.859-2.136,9.957-7.823,10.062-14.156,0.08-4.963-2.228-9.545-6.25-12.563v-56.218c0-2.9794-1.517-5.4549-3.812-6.969-1.479-0.978-3.296-1.5446-5.219-1.5938zm0,4c1.071,0.0273,2.082,0.3302,2.906,0.875,1.279,0.8435,2.125,2.2468,2.125,3.9058v18.75,30.563,8.937c3.707,1.85,6.25,5.67,6.25,10.094,0,6.231-5.05,11.282-11.281,11.282s-11.281-5.051-11.281-11.282c0-4.424,2.543-8.244,6.25-10.094v-8.937-30.344-18.75c0-1.571,0.689-2.9114,1.781-3.8122,0.875-0.7221,2.004-1.1564,3.25-1.1876zm-3.031,54.094v10.25c-3.636,1.258-6.25,4.718-6.25,8.781,0,5.127,4.155,9.282,9.281,9.282,5.127,0,9.281-4.155,9.281-9.282,0-4.063-2.614-7.523-6.25-8.781v-10.25h-6.062z" />
    <path
       id="du"
       d="M51.312,0c-5.182,0-9.974,1.68-13.874,4.5h27.687c-3.879-2.82-8.641-4.5-13.813-4.5zm-18.312,8.625c-1.135,1.375-2.102,2.891-2.906,4.5h42.312c-0.806-1.614-1.771-3.121-2.906-4.5h-36.5zm-4.5,8.625c-0.41,1.451-0.686,2.95-0.812,4.5h63.718c-2.932-1.897-6.403-3-10.156-3-2.34,0-4.568,0.47-6.625,1.25-0.15-0.948-0.368-1.843-0.625-2.75h-45.5zm-7.438,8.625c-2.04,1.037-3.774,2.58-5,4.5h82.532c-0.668-1.626-1.551-3.141-2.625-4.5h-74.907zm-6.718,8.625c-0.192,0.879-0.282,1.814-0.282,2.75,0,0.087,0.032,0.163,0.032,0.25-1.008-0.302-2.054-0.531-3.156-0.531-2.3638,0-4.5566,0.758-6.3442,2.031h95.344c0.038-0.499,0.062-0.991,0.062-1.5,0-1.025-0.092-2.02-0.25-3h-85.406zm-13.25,8.625c-0.66562,1.366-1.0531,2.889-1.0938,4.5h97.031c0.893-1.385,1.589-2.896,2.094-4.5h-98.031zm-0.25005,8.625c1.6598,3.194,5.5612,4.5,10.094,4.5h70.312c4.652,0,8.91-1.698,12.188-4.5h-92.594zm38.468,10.75c-0.759-0.008-1.556,0.309-2.25,0.938-1.335,1.169-1.566,2.837-1.562,4.343,0,0.72,0.028,1.412,0.062,2.094-0.312-0.273-0.654-0.545-1.093-0.813-0.923-0.583-1.719-0.901-2.5-0.906-1.983,0.081-2.569,1.987-2.625,4.063-2.107,1.723-2.485,8.9,1.25,7.656,2.024-0.679,2.888-3.279,2.687-5.063,0,0-0.133-2.52-2.406-2.906,0.113-1.699,0.571-2.25,1.094-2.25,0.322-0.007,0.906,0.152,1.687,0.656,1.414,0.98,1.839,1.344,2,2.25,0.022,0.858,0.123,2.878,0.125,2.969,0.215,3.013,0.671,5.308,1,8.344h-15.375l2.406,1.125,10.188,3.406,9.406-1.625,6.594,2.313,5.219-1.625,1.562-3.594h-17.75c-0.332-3.103-1.537-5.565-1.75-8.563,0.025-1.026,0.014-1.776-0.125-2.75-0.014-0.558-0.062-1.052-0.062-1.624,0-1.092-0.094-2.176-0.094-3.157,0.005-1.388,0.215-2.473,1.062-3.219,0.506-0.442,0.912-0.556,1.25-0.562,0.889-0.094,2.063,1.286,2.657,2.844-0.523,0.425-0.813,0.812-0.813,0.812-2.021,2.831,5.595,10.919,8.625,6.563,1.297-1.864-0.371-7.221-3.437-8.281-1.201-0.418-2.252-0.24-3.094,0.124-0.718-1.754-1.95-3.466-3.938-3.562zm4.282,4.281s3.683,2.507,4.718,6.969l-5.781-6.312,1.063-0.657zm-13.032,6.063l-1.031,5.781c-0.517-1.831,0-5.344,0-5.344l1.031-0.437zm-30.562,11.031v6.375l5.2188-2.781,1.5624-3.594h-6.7812zm8.6875,0l-2.0937,4.187,4.7812,6,4.594-2.75,4.781-5.937-1.469-1.5h-10.594zm50,0l-2.094,4.187,4.781,6,4.594-2.75,4.781-5.937-1.469-1.5h-10.593zm12.718,0l2.406,1.125,10.188,3.406,7.938-1.125,8.062-2.562v-0.844h-28.594zm-48.718,2.281l-4.563,5.656,12.5,6.782,7.625-1.469-5.375-7.594-10.187-3.375zm50,0l-4.563,5.656,12.5,6.782,7.625-1.469-5.375-7.594-10.187-3.375zm27.312,0l-5.281,1.406,5.281,1.532v-2.938zm-56.781,2.594l-7.688,1.031,5.031,7.313,13.344,2.906,5.813-4.75-4.375-5.75-5.344,1.438-6.781-2.188zm50,0l-7.688,1.031,5.031,7.313,9.438,2.218v-8.374l-6.781-2.188zm-87.875,0.75l-5.3438,2.562v7.938h3.9062l5.8126-4.781-4.375-5.719zm11.406,3.625l-8.1562,5.531,1.0937,1.344h18.718l-0.062-0.281-11.594-6.594zm50,0l-8.156,5.531,1.094,1.344h18.718l-0.062-0.281-11.594-6.594zm-27.062,5.469l-6.376,1.406h12.219l-5.843-1.406zm50,0l-6.376,1.406h12.219l-5.843-1.406z" />
    <path
       id="few"
       d="M43.031,0v15.344h4v-15.344h-4zm-17.75,4.375l-3.406,2.1562,8.125,13,3.406-2.125-8.125-13.031zm39.781,0.4062l-7.437,13.407,3.531,1.968,7.406-13.406-3.5-1.9688zm-57.281,14.625l-1.9687,3.532,13.376,7.437,1.968-3.531-13.375-7.438zm37.281,0.594c-13.724,0-24.874,11.166-24.874,24.938,0,13.77,11.15,24.94,24.874,24.937,13.716,0,24.813-11.165,24.813-24.937s-11.099-24.938-24.813-24.938zm37.563,0.5l-13.25,7.656,2.031,3.5,13.25-7.656-2.031-3.5zm-82.625,21.281v4.031h15.312v-4.031h-15.312zm74.688,0.25v4.031h15.312v-4.031h-15.312zm-57.219,14.094l-12.969,8.156,2.0938,3.407,13-8.126-2.125-3.437zm54.437,0.875l-1.968,3.531,13.406,7.438,1.937-3.531-13.375-7.438zm-10.187,12.25l-3.469,2,7.656,13.312,3.469-2-7.656-13.312zm-33.438,0.094l-7.406,13.437,3.5,1.969,7.437-13.438-3.531-1.968zm14.5,5.312v15.344h4.031v-15.344h-4.031zm37.719,2c-5.303,0-9.565,4.213-9.875,9.438-2.591,0.249-4.6,2.193-5.063,4.718-0.152-0.016-0.276-0.062-0.437-0.062-2.817,0-5.125,2.31-5.125,5.125,0,1.408,0.671,2.588,1.656,3.25,0.986,0.662,2.198,0.875,3.469,0.875h13.094,7.125,6.562c4.46,0,8.094-3.633,8.094-8.094s-3.633-8.094-8.094-8.094c-0.677,0-1.29,0.185-1.906,0.344-1.127-4.272-4.881-7.5-9.5-7.5zm0,1.906c4.035,0,7.328,2.983,7.938,6.844l0.187,1.156,1.094-0.437c0.693-0.263,1.427-0.406,2.187-0.406,3.432,0,6.188,2.756,6.188,6.187,0,3.432-2.756,6.188-6.188,6.188h-6.562-7.125-13.094c-1.031,0-1.884-0.212-2.406-0.563-0.522-0.35-0.813-0.762-0.813-1.656,0-1.785,1.432-3.219,3.219-3.219,0.296,0,0.576,0.057,0.906,0.156l1.25,0.376v-1.282c0-0.059-0.028-0.061-0.031-0.094,0-0.054-0.005-0.05,0-0.062-0.001-0.005,0.001-0.029,0-0.031,0.05-2.124,1.77-3.813,3.906-3.813-0.031,0,0.066,0.017,0.282,0.032l1.062,0.062-0.031-1.062c-0.012-0.261-0.063-0.343-0.063-0.282,0-4.471,3.62-8.094,8.094-8.094z" />
    <path
       id="fg"
       d="M51.312,21.875c-5.183,0-9.974,1.68-13.874,4.5h27.687c-3.879-2.82-8.642-4.5-13.813-4.5zm-18.312,8.625c-1.135,1.375-2.102,2.891-2.906,4.5h42.312c-0.806-1.614-1.771-3.121-2.906-4.5h-36.5zm-4.5,8.625c-0.41,1.451-0.686,2.95-0.812,4.5h63.718c-2.932-1.897-6.403-3-10.156-3-2.34,0-4.568,0.47-6.625,1.25-0.15-0.948-0.368-1.843-0.625-2.75h-45.5zm-7.438,8.625c-2.041,1.037-3.774,2.58-5,4.5h82.532c-0.668-1.626-1.551-3.141-2.625-4.5h-74.907zm-6.718,8.625c-0.192,0.879-0.282,1.814-0.282,2.75,0,0.087,0.032,0.163,0.032,0.25-1.008-0.302-2.054-0.531-3.156-0.531-2.3633,0-4.5566,0.758-6.3442,2.031h95.344c0.039-0.499,0.062-0.991,0.062-1.5,0-1.025-0.092-2.02-0.25-3h-85.406zm-13.25,8.625c-0.66557,1.366-1.0531,2.889-1.0938,4.5h97.031c0.893-1.385,1.589-2.896,2.094-4.5h-98.031zm-0.25005,8.625c1.6598,3.194,5.5614,4.5,10.094,4.5h70.312c4.652,0,8.91-1.698,12.188-4.5h-92.594z" />
    <path
       id="fu"
       d="M51.312,0c-5.182,0-9.974,1.68-13.874,4.5h27.687c-3.879-2.82-8.641-4.5-13.813-4.5zm-18.312,8.625c-1.135,1.375-2.102,2.891-2.906,4.5h42.312c-0.806-1.614-1.771-3.121-2.906-4.5h-36.5zm-4.5,8.625c-0.41,1.451-0.686,2.95-0.812,4.5h63.718c-2.932-1.897-6.403-3-10.156-3-2.34,0-4.568,0.47-6.625,1.25-0.15-0.948-0.368-1.843-0.625-2.75h-45.5zm-7.438,8.625c-2.04,1.037-3.774,2.58-5,4.5h82.532c-0.668-1.626-1.551-3.141-2.625-4.5h-74.907zm-6.718,8.625c-0.192,0.879-0.282,1.814-0.282,2.75,0,0.087,0.032,0.163,0.032,0.25-1.008-0.302-2.054-0.531-3.156-0.531-2.3638,0-4.5566,0.758-6.3442,2.031h95.344c0.038-0.499,0.062-0.991,0.062-1.5,0-1.025-0.092-2.02-0.25-3h-85.406zm-13.25,8.625c-0.66562,1.366-1.0531,2.889-1.0938,4.5h97.031c0.893-1.385,1.589-2.896,2.094-4.5h-98.031zm-0.25005,8.625c1.6598,3.194,5.5612,4.5,10.094,4.5h70.312c4.652,0,8.91-1.698,12.188-4.5h-92.594zm36.781,5.469c-1.524,1.269-2.656,2.59-2.656,3.969,0,0.735,0.502,1.755,1.312,2.624,0.926,1.072,1.199,2.288,1.344,2.657,0.959-0.765,1.313-1.671,1.313-2.657,0-0.735-0.801-1.727-1.313-2.624-0.66-1.214,0.153-2.866,0-3.969zm-6.625,2.625c-0.004,0.156-3.809,6.267-1.344,9.281,3.827,4.666,2.211,8.27,0,7.937-3.714-0.556-3.241-5.403-2.625-6.624-1.941-0.205-4.201,1.01-5.312,2.656-3.342,4.963,3.887,9.72,1.312,13.25-1.959,2.689-5.292-2.615-5.281-2.656-3.976,20.752,24.882,21.272,26.469,3.968,0.472-5.19,5.162-8.004,5.312-7.937-4.976-2.295-7.937,1.478-7.937,1.312,0-0.65,2.782-9.29-2.656-11.906-6.267-3.014-7.99-5.429-7.938-9.281zm-1.344,23.844c0.02,0.041,3.265,0.534,5.313,2.656,3.14,3.242,2.773,9.076-2.657,9.281-6.942,0.256-6.212-4.95-5.281-6.625,1.183-2.133,4.153-2.568,2.625-5.312z" />
    <path
       id="fzra"
       d="M42.312,14.812c-10.476,0-18.937,8.499-18.937,18.969,0,0.237,0.052,0.451,0.063,0.688-0.237-0.016-0.451-0.063-0.688-0.063-5.636,0-10.219,4.583-10.219,10.219,0,0.07,0.031,0.118,0.031,0.187-0.806-0.241-1.648-0.406-2.531-0.406-4.8342,0-8.7498,3.921-8.7498,8.75,0,4.835,3.9156,6.656,8.7498,6.656h56.25c8.287,0,15-6.713,15-15s-6.713-15-15-15c-1.872,0-3.667,0.408-5.312,1.032-1.431-9.057-9.202-16.032-18.657-16.032zm48.126,20.376c-1.21,0.03-2.276,0.423-3.126,1.124-1.06,0.875-1.75,2.193-1.75,3.719v30.188c-2.122,1.594-3.365,4.018-3.374,6.656-0.009,3.496,2.126,6.419,5.124,7.656,0.971,0.401,2.015,0.651,3.126,0.657,0.999,0.006,1.965-0.177,2.843-0.5,3.171-1.156,5.381-4.23,5.438-7.657,0.043-2.685-1.199-5.179-3.375-6.812v-30.407c0-1.612-0.821-2.962-2.063-3.781-0.799-0.529-1.772-0.817-2.812-0.843h-0.031zm0,2.156c0.579,0.015,1.147,0.174,1.593,0.468,0.692,0.457,1.157,1.227,1.157,2.126v31.5c2.005,1,3.374,3.074,3.374,5.468,0,3.372-2.753,6.094-6.124,6.094-3.372,0-6.094-2.722-6.094-6.094,0-2.393,1.369-4.468,3.375-5.468v-31.407c0-0.85,0.378-1.575,0.969-2.062,0.473-0.391,1.076-0.608,1.75-0.625zm-70.376,27.437l-7.218,19.844,1.531,0.563,7.437-20.407h-1.75zm8.25,0l-7.218,19.844,1.562,0.563,7.406-20.407h-1.75zm8.282,0l-7.219,19.844,1.531,0.563,7.438-20.407h-1.75zm8.25,0l-7.219,19.844,1.531,0.563,7.438-20.407h-1.75zm8.25,0l-7.219,19.844,1.563,0.563,7.406-20.407h-1.75zm8.281,0l-7.219,19.844,1.532,0.563,7.437-20.407h-1.75zm27.437,1.844v5.531c-1.966,0.681-3.374,2.552-3.374,4.75,0,2.774,2.226,5.032,5,5.032s5.031-2.258,5.031-5.032c0-2.198-1.408-4.069-3.375-4.75v-5.531h-3.282z" />
    <path
       id="hi_shwrs"
       d="m73.078,1.875,0,8.5312,2.2188,0,0-8.5312-2.2188,0zm-9.875,2.4062-1.875,1.2188,4.5,7.2188,1.9062-1.1875-4.5312-7.25zm22.125,0.25-4.125,7.4375,1.9375,1.0938,4.125-7.4688-1.9375-1.0625zm-31.844,8.125-1.0625,1.9375,7.4062,4.1562,1.0938-1.9688-7.4375-4.125zm20.719,0.3125c-7.625,0-13.812,6.224-13.812,13.875,0,7.65,6.1875,13.845,13.812,13.844,7.619,0,13.781-6.1928,13.781-13.844,0-7.65-6.1622-13.875-13.781-13.875zm20.875,0.28125-7.375,4.25,1.125,1.9688,7.375-4.2812-1.125-1.9375zm-45.906,11.812,0,2.25,8.5,0,0-2.25-8.5,0zm41.5,0.15625,0,2.2188,8.5,0,0-2.2188-8.5,0zm-31.812,7.8125-7.1875,4.5312,1.1562,1.9062,7.2188-4.5312-1.1875-1.9062zm30.25,0.5-1.0625,1.9688,7.4062,4.125,1.0938-1.9688-7.4375-4.125zm-54.094,3.5625c-8.8406,0-15.952,7.0403-16.469,15.75-4.3198,0.41518-7.666,3.6658-8.4375,7.875-0.25345-0.02661-0.4506-0.125-0.71875-0.125-4.6961,0-8.5625,3.8389-8.5625,8.5312,0,2.3476,1.108,4.3341,2.75,5.4375,1.6436,1.1041,3.6939,1.4688,5.8125,1.4688h21.812,11.875,10.938c7.4348,0,13.5-6.0639,13.5-13.5s-6.0638-13.5-13.5-13.5c-1.1286,0-2.1604,0.29785-3.1875,0.5625-1.8785-7.1211-8.1131-12.5-15.812-12.5zm0,3.1875c6.7262,0,12.201,4.9699,13.219,11.406l0.3125,1.9375,1.8438-0.75c1.1552-0.43828,2.3578-0.65625,3.625-0.65625,5.7208,0,10.344,4.5931,10.344,10.312,0,5.7208-4.6229,10.312-10.344,10.312h-10.938-11.875-21.812c-1.7188,0-3.1608-0.35219-4.0312-0.9375-0.8702-0.58322-1.3438-1.2907-1.3438-2.7812,0-2.9749,2.3959-5.3438,5.375-5.3438,0.49359,0,0.94969,0.08547,1.5,0.25l2.0938,0.625v-2.125c0-0.09802-0.0576-0.10094-0.0625-0.15625,0-0.08962-0.008-0.1047,0-0.125-0.001-0.0084,0.001-0.02845,0-0.03125,0.0833-3.5413,2.9391-6.375,6.5-6.375-0.0518,0,0.14013,0.0373,0.5,0.0625l1.75,0.09375-0.0625-1.75c-0.01274-0.28261-0.06568-0.42474-0.09375-0.46875,0-0.02538-0.0087-0.03558,0-0.03125,0.01709-7.4384,6.052-13.469,13.5-13.469zm48.438,0.0625-1.9062,1.125,4.25,7.375,1.9062-1.125-4.25-7.375zm-18.562,0.0625-4.125,7.4375,1.9688,1.0938,4.125-7.4688-1.9688-1.0625zm8.0625,2.9375,0,8.5312,2.2188,0,0-8.5312-2.2188,0zm-57.344,36.938-6.3438,17.344,1.375,0.5,6.5-17.844-1.5312,0zm12.031,0-6.3125,17.344,1.3438,0.5,6.5-17.844-1.5312,0zm12.062,0-6.3125,17.344,1.3438,0.5,6.5-17.844-1.5312,0zm12.031,0-6.2812,17.344,1.3438,0.5,6.5-17.844-1.5625,0z" />
    <path
       id="hot"
       d="m50,3.7812c-2.2361,0.056002-4.2425,0.82896-5.8125,2.125-1.9601,1.617-3.2188,4.0236-3.2188,6.8438v55.812c-3.9221,2.9471-6.232,7.4064-6.25,12.281-0.016,6.4612,3.9266,11.869,9.4688,14.156,1.794,0.74102,3.7292,1.1765,5.7812,1.1875,1.8471,0.011,3.627-0.30923,5.25-0.90625,5.8592-2.1361,9.957-7.8234,10.062-14.156,0.08-4.9631-2.2279-9.5449-6.25-12.562v-56.219c0-2.9791-1.5174-5.4546-3.8125-6.9688-1.478-0.9772-3.295-1.5438-5.218-1.593zm0,4c1.0714,0.027299,2.0824,0.33013,2.9062,0.875,1.2786,0.84349,2.125,2.2466,2.125,3.9062v18.75,30.562,8.9375c3.7066,1.8491,6.25,5.6698,6.25,10.094,0,6.2312-5.0504,11.281-11.281,11.281-6.2312,0-11.281-5.0504-11.281-11.281,0-4.4238,2.5434-8.2444,6.25-10.094v-8.9375-30.344-18.75c0-1.5711,0.68933-2.9116,1.7812-3.8125,0.87469-0.72204,2.0043-1.1563,3.25-1.1875zm-3.0312,10.094,0,54.25c-3.6353,1.2579-6.25,4.7182-6.25,8.7812,0,5.1266,4.1548,9.2812,9.2812,9.2812,5.1266,0,9.2812-4.1548,9.2812-9.2812,0-4.0631-2.6147-7.5234-6.25-8.7812v-54.25z" />
    <path
       id="ip"
       d="M51.312,4.6875c-13.094,0-23.718,10.6-23.718,23.688,0,0.296,0.08,0.579,0.094,0.875-0.296-0.02-0.58-0.094-0.876-0.094-7.044,0-12.75,5.705-12.75,12.75,0,0.087,0.032,0.163,0.032,0.25-1.008-0.302-2.054-0.5-3.156-0.5-6.0435,0-10.938,4.901-10.938,10.938,0,6.043,4.8945,8.344,10.938,8.344h70.312c10.358,0,18.75-8.392,18.75-18.75,0-10.36-8.391-18.75-18.75-18.75-2.34,0-4.568,0.47-6.625,1.25-1.788-11.322-11.495-20-23.313-20zm-9.562,59.594c-0.973,0.049-1.864,0.653-2.219,1.625-0.473,1.297,0.204,2.745,1.5,3.219,1.297,0.473,2.745-0.203,3.219-1.5s-0.203-2.745-1.5-3.219c-0.324-0.118-0.676-0.141-1-0.125zm34.438,0c-0.973,0.049-1.864,0.653-2.219,1.625-0.474,1.297,0.203,2.745,1.5,3.219,1.296,0.473,2.714-0.203,3.187-1.5,0.474-1.297-0.172-2.745-1.468-3.219-0.325-0.118-0.676-0.141-1-0.125zm-52.126,1c-0.778,0.039-1.497,0.535-1.781,1.313-0.379,1.037,0.182,2.183,1.219,2.562s2.184-0.181,2.562-1.218c0.379-1.038-0.181-2.184-1.218-2.563-0.26-0.095-0.522-0.107-0.782-0.094zm34.438,0c-0.778,0.039-1.497,0.535-1.781,1.313-0.379,1.037,0.15,2.183,1.187,2.562,1.038,0.379,2.184-0.181,2.563-1.218,0.379-1.038-0.151-2.184-1.188-2.563-0.259-0.095-0.522-0.107-0.781-0.094zm-19.125,5.5c-0.973,0.049-1.864,0.684-2.219,1.657-0.473,1.296,0.204,2.713,1.5,3.187,1.297,0.473,2.714-0.203,3.188-1.5,0.473-1.297-0.172-2.714-1.469-3.187-0.324-0.119-0.676-0.173-1-0.157zm34.437,0c-0.972,0.049-1.863,0.684-2.218,1.657-0.474,1.296,0.203,2.713,1.5,3.187,1.296,0.473,2.714-0.203,3.187-1.5,0.474-1.297-0.203-2.714-1.5-3.187-0.324-0.119-0.644-0.173-0.969-0.157zm-52.124,1c-0.779,0.039-1.498,0.535-1.782,1.313-0.379,1.037,0.151,2.183,1.188,2.562s2.215-0.15,2.594-1.187c0.378-1.038-0.182-2.184-1.219-2.563-0.26-0.094-0.522-0.138-0.781-0.125zm34.437,0c-0.778,0.039-1.497,0.535-1.781,1.313-0.379,1.037,0.15,2.183,1.187,2.562,1.038,0.379,2.184-0.15,2.563-1.187,0.379-1.038-0.151-2.184-1.188-2.563-0.259-0.094-0.522-0.138-0.781-0.125zm-19.125,5.5c-0.973,0.049-1.864,0.684-2.219,1.657-0.473,1.296,0.204,2.745,1.5,3.218,1.297,0.474,2.714-0.203,3.188-1.5,0.473-1.296-0.172-2.745-1.469-3.218-0.324-0.119-0.676-0.173-1-0.157zm34.438,0c-0.973,0.049-1.864,0.684-2.219,1.657-0.474,1.296,0.172,2.745,1.469,3.218,1.296,0.474,2.745-0.203,3.218-1.5,0.474-1.296-0.203-2.745-1.5-3.218-0.324-0.119-0.644-0.173-0.968-0.157zm-52.126,1c-0.778,0.039-1.497,0.535-1.781,1.313-0.379,1.037,0.151,2.215,1.188,2.594,1.037,0.378,2.183-0.182,2.562-1.219,0.379-1.038-0.15-2.184-1.187-2.563-0.26-0.094-0.522-0.138-0.782-0.125zm34.438,0c-0.778,0.039-1.497,0.535-1.781,1.313-0.379,1.037,0.15,2.215,1.187,2.594,1.038,0.378,2.184-0.182,2.563-1.219,0.379-1.038-0.151-2.184-1.188-2.563-0.259-0.094-0.522-0.138-0.781-0.125zm-19.125,5.531c-0.973,0.049-1.864,0.653-2.219,1.626-0.473,1.296,0.204,2.745,1.5,3.218,1.297,0.474,2.714-0.203,3.188-1.5,0.473-1.296-0.204-2.714-1.5-3.187-0.324-0.119-0.645-0.173-0.969-0.157zm34.437,0c-0.972,0.049-1.863,0.653-2.218,1.626-0.474,1.296,0.172,2.745,1.468,3.218,1.297,0.474,2.746-0.203,3.219-1.5,0.474-1.296-0.203-2.714-1.5-3.187-0.324-0.119-0.644-0.173-0.969-0.157zm-52.124,1c-0.779,0.039-1.498,0.535-1.782,1.313-0.379,1.037,0.151,2.184,1.188,2.563,1.037,0.378,2.183-0.151,2.562-1.188s-0.15-2.184-1.187-2.562c-0.26-0.095-0.522-0.138-0.781-0.126zm34.437,0c-0.778,0.039-1.497,0.535-1.781,1.313-0.379,1.037,0.15,2.184,1.187,2.563,1.038,0.378,2.184-0.151,2.563-1.188s-0.151-2.184-1.188-2.562c-0.259-0.095-0.522-0.138-0.781-0.126zm-24.844,2.219c-1.38,0-2.5,1.12-2.5,2.5,0,1.381,1.12,2.5,2.5,2.5,1.381,0,2.5-1.119,2.5-2.5,0-1.38-1.119-2.5-2.5-2.5zm34.438,0c-1.381,0-2.5,1.12-2.5,2.5,0,1.381,1.119,2.5,2.5,2.5,1.38,0,2.5-1.119,2.5-2.5,0-1.38-1.12-2.5-2.5-2.5zm-52.156,1c-1.1046,0-2,0.896-2,2,0,1.105,0.8954,2,2,2s1.9995-0.895,1.9995-2c0-1.104-0.8949-2-1.9995-2zm34.438,0c-1.105,0-2,0.896-2,2,0,1.105,0.895,2,2,2s2-0.895,2-2c0-1.104-0.895-2-2-2zm-11,2.281c-0.973,0.049-1.864,0.684-2.219,1.657-0.473,1.296,0.172,2.714,1.469,3.187,1.297,0.474,2.745-0.172,3.219-1.468,0.473-1.297-0.204-2.746-1.5-3.219-0.324-0.119-0.645-0.173-0.969-0.157zm34.438,0c-0.973,0.049-1.864,0.684-2.219,1.657-0.474,1.296,0.172,2.714,1.469,3.187,1.296,0.474,2.745-0.172,3.218-1.468,0.474-1.297-0.203-2.746-1.5-3.219-0.324-0.119-0.644-0.173-0.968-0.157zm-52.126,1c-0.778,0.039-1.497,0.535-1.781,1.313-0.379,1.037,0.151,2.184,1.188,2.563,1.037,0.378,2.183-0.151,2.562-1.188s-0.15-2.184-1.187-2.562c-0.26-0.095-0.522-0.138-0.782-0.126zm34.438,0c-0.778,0.039-1.497,0.535-1.781,1.313-0.379,1.037,0.15,2.184,1.187,2.563,1.038,0.378,2.184-0.151,2.563-1.188s-0.151-2.184-1.188-2.562c-0.259-0.095-0.522-0.138-0.781-0.126z" />
    <path
       id="mix"
       d="M25.5,2l-2.25,1.4688v7.0312l-3.938-2.1875-2,1.1563v2.4692l5.844,3.312v4.625l-4.344-2.313v4.782l-4.124-2.375v-6.781l-2.25-1.313-1.876,1.25v4.531l-6.1558-3.531-2.4062,1.219v2.812l6.25,3.406-3.9062,2.188v2.562l2.1562,1.094,5.781-3.406,4.031,2.312-4,2.5,4.126,2.344,0.093,0.094-4.031,2.312-5.7812-3.406-2.3126,1.25v2.563l4.0626,2.031-6.4688,3.531v2.813l2.625,1.094,6.156-3.469v4.469l1.875,1.25,2.219-1.376v-6.656l4.031-2.344v4.907l4.25-2.719v4.625l-5.844,3.344v2.469l2,1.156,3.938-2.219v7.063l2.25,1.437,2.281-1.437v-7.063l3.938,2.219,2-1v-2.625l-5.844-3.344v-4.625l4.125,2.531v-4.625l4.344,2.438v6.687l2.031,1.157,2.094-1.157v-4.406l5.843,3.313,2.532-1.126v-2.781l-5.938-3.531,3.719-2.094v-2.406l-1.906-1.344-5.969,3.313-4.219-2.188,4.094-2.375-3.969-2.468,4.094-2.626,5.969,3.532,2-1.125v-2.5l-3.875-2.188,6.187-3.5v-2.625l-2.219-1.375-6.343,3.438v-4.657l-2.157-0.937-2.031,0.937v7.282l-4.281,2.312v-5.031l-4.125,2.5v-4.625l6.063-3.438v-2.187l-2.063-1.375-4.094,2.25v-7.0312l-2.281-1.4688zm68.438,1.9375l-90,90,2.125,2.124,90-90-2.124-2.125zm-2.313,10.75c-0.939,0.03-1.808,0.36-2.469,0.906-0.833,0.688-1.344,1.706-1.344,2.906v23.75c-1.668,1.254-2.648,3.145-2.656,5.219-0.007,2.748,1.643,5.058,4,6.031,0.763,0.315,1.596,0.495,2.469,0.5,0.786,0.005,1.56-0.121,2.25-0.375,2.492-0.909,4.205-3.338,4.25-6.031,0.034-2.111-0.945-4.06-2.656-5.344v-23.906c0-1.267-0.618-2.325-1.594-2.969-0.621-0.411-1.412-0.662-2.219-0.687h-0.031zm0.031,1.718c0.456,0.012,0.869,0.144,1.219,0.375,0.544,0.359,0.906,0.951,0.906,1.657v24.781c1.577,0.786,2.657,2.399,2.657,4.281,0,2.65-2.132,4.812-4.782,4.812s-4.812-2.162-4.812-4.812c0-1.882,1.079-3.495,2.656-4.281v-24.688c0-0.668,0.286-1.242,0.75-1.625,0.372-0.307,0.876-0.486,1.406-0.5zm-68,9.125h3.938l1.906,3.313-1.812,3.125h-3.938l-2.125-3.125,2.031-3.313zm66.688,13.875v4.375c-1.546,0.535-2.656,1.991-2.656,3.719,0,2.18,1.788,3.938,3.968,3.938,2.181,0,3.938-1.758,3.938-3.938,0-1.728-1.11-3.184-2.656-3.719v-4.375h-2.594zm-22.25,4.563c-8.046,0-14.563,6.521-14.563,14.562,0,0.182,0.024,0.35,0.031,0.531-0.181-0.012-0.349-0.062-0.531-0.062-4.328,0-7.843,3.515-7.843,7.844,0,0.053,0.031,0.103,0.031,0.156-0.62-0.186-1.26-0.312-1.938-0.312-3.713,0-6.719,3.009-6.719,6.718,0,3.713,3.006,5.125,6.719,5.125h43.188c6.364-0.002,11.531-5.166,11.531-11.531,0-6.364-5.167-11.5-11.531-11.5-1.438,0-2.799,0.271-4.063,0.75-1.098-6.956-7.051-12.281-14.312-12.281zm-17.094,38.343l-5.562,15.25,1.187,0.438,5.719-15.688h-1.344zm6.344,0l-5.563,15.25,1.188,0.438,5.719-15.688h-1.344zm6.344,0l-5.563,15.25,1.187,0.438,5.719-15.688h-1.343zm6.343,0l-5.562,15.25,1.187,0.438,5.719-15.688h-1.344zm6.344,0l-5.563,15.25,1.188,0.438,5.719-15.688h-1.344zm6.344,0l-5.563,15.25,1.188,0.438,5.718-15.688h-1.343z" />
    <path
       id="ovc"
       d="m81.245,40.626c-2.34,0-4.558,0.484-6.615,1.264-1.788-11.321-11.508-20.013-23.326-20.013-13.095,0-23.702,10.608-23.702,23.696,0,0.296,0.081,0.571,0.094,0.867-0.296-0.02-0.578-0.087-0.874-0.087-7.045,0-12.759,5.714-12.759,12.759,0,0.087,0.027,0.168,0.027,0.255-1.008-0.302-2.05-0.518-3.153-0.518-6.043,0-10.937,4.901-10.937,10.938,0,6.043,4.894,8.335,10.937,8.335h70.308c10.358,0,18.755-8.389,18.755-18.748s-8.396-18.748-18.755-18.748z" />
    <path
       id="ra1"
       d="m 51.312,6.0312 c -13.094,0 -23.718,10.6 -23.718,23.688 0,0.296 0.08,0.579 0.094,0.875 -0.296,-0.02 -0.58,-0.094 -0.876,-0.094 -7.044,0 -12.75,5.705 -12.75,12.75 0,0.087 0.032,0.194 0.032,0.281 -1.008,-0.302 -2.054,-0.531 -3.156,-0.531 -6.0435,0 -10.938,4.9 -10.938,10.938 0,6.042 4.8945,8.343 10.938,8.343 l 70.312,0 c 10.358,0 18.75,-8.391 18.75,-18.75 0,-10.359 -8.391,-18.75 -18.75,-18.75 -2.34,0 -4.568,0.47 -6.625,1.25 -1.788,-11.321 -11.495,-20 -23.313,-20 z m -27.843,62.438 -9.031,24.781 1.937,0.719 9.313,-25.5 z m 8.187,24.781 c -21.104,4.499867 -10.552,2.249933 0,0 z m 26.25,-24.781 -9.031,24.781 1.937,0.719 9.282,-25.5 z m 17.188,0 -9,24.781 1.937,0.719 9.281,-25.5 z" />
    <path
       id="ra"
       d="M51.312,6.0312c-13.094,0-23.718,10.6-23.718,23.688,0,0.296,0.08,0.579,0.094,0.875-0.296-0.02-0.58-0.094-0.876-0.094-7.044,0-12.75,5.705-12.75,12.75,0,0.087,0.032,0.194,0.032,0.281-1.008-0.302-2.054-0.531-3.156-0.531-6.0435,0-10.938,4.9-10.938,10.938,0,6.042,4.8945,8.343,10.938,8.343h34.374,18.719,17.219c10.358,0,18.75-8.391,18.75-18.75s-8.391-18.75-18.75-18.75c-2.34,0-4.568,0.47-6.625,1.25-1.788-11.321-11.495-20-23.313-20zm-27.843,62.438l-9.031,24.781,1.937,0.719,9.313-25.5h-2.219zm10.343,0l-9.031,24.781,1.938,0.719,9.281-25.5h-2.188zm10.313,0l-9.031,24.781,1.937,0.719,9.281-25.5h-2.187zm10.344,0l-9.031,24.781,1.937,0.719,9.281-25.5h-2.187zm10.312,0l-9.031,24.781,1.938,0.719,9.281-25.5h-2.188zm10.313,0l-9,24.781,1.937,0.719,9.281-25.5h-2.218z" />
    <path
       id="raip"
       d="M30.219,2c-7.202,0-13.031,5.8326-13.031,13.031,0,0.163,0.024,0.306,0.031,0.469-0.163-0.011-0.306-0.031-0.469-0.031-3.875,0-7,3.125-7,7v0.156c-0.5544-0.166-1.112-0.281-1.7188-0.281-3.3236,0-6.0312,2.679-6.0312,6,0,3.323,2.7076,4.594,6.0312,4.594h38.657c5.696,0,10.312-4.615,10.312-10.313,0-5.697-4.616-10.313-10.312-10.313-1.288,0-2.525,0.259-3.657,0.688-0.983-6.2265-6.313-11-12.812-11zm63.719,1.9375l-90,90,2.125,2.124,90-90-2.124-2.125zm-79.032,32.406l-4.9685,13.625,1.0625,0.406,5.125-14.031h-1.219zm5.688,0l-4.969,13.625,1.063,0.406,5.124-14.031h-1.218zm5.687,0l-4.969,13.625,1.063,0.406,5.094-14.031h-1.188zm5.657,0l-4.938,13.625,1.062,0.406,5.094-14.031h-1.218zm5.687,0l-4.969,13.625,1.063,0.406,5.125-14.031h-1.219zm5.687,0l-4.968,13.625,1.062,0.406,5.094-14.031h-1.188zm27.907,11.812c-7.202,0-13.031,5.833-13.031,13.032,0,0.162,0.024,0.305,0.031,0.468-0.163-0.011-0.306-0.062-0.469-0.062-3.875,0-7,3.156-7,7.031v0.156c-0.554-0.166-1.112-0.312-1.719-0.312-3.323,0-6.031,2.711-6.031,6.031,0,3.324,2.708,4.594,6.031,4.594h38.657c5.696,0,10.312-4.616,10.312-10.313s-4.615-10.312-10.312-10.312c-1.288,0-2.525,0.258-3.657,0.687-0.983-6.226-6.313-11-12.812-11zm-5.25,32.782c-0.535,0.026-1.024,0.34-1.219,0.874-0.26,0.714,0.099,1.521,0.812,1.782,0.714,0.26,1.521-0.1,1.782-0.813,0.26-0.713-0.131-1.521-0.844-1.781-0.178-0.065-0.353-0.071-0.531-0.062zm18.937,0c-0.535,0.026-1.023,0.34-1.218,0.874-0.261,0.714,0.099,1.521,0.812,1.782,0.713,0.26,1.521-0.1,1.781-0.813,0.261-0.713-0.13-1.521-0.843-1.781-0.179-0.065-0.353-0.071-0.532-0.062zm-28.656,0.531c-0.428,0.021-0.844,0.291-1,0.719-0.208,0.57,0.086,1.197,0.656,1.406,0.571,0.208,1.198-0.086,1.406-0.656,0.209-0.571-0.054-1.198-0.624-1.407-0.143-0.052-0.295-0.069-0.438-0.062zm18.938,0c-0.429,0.021-0.844,0.291-1,0.719-0.209,0.57,0.085,1.197,0.656,1.406,0.57,0.208,1.198-0.086,1.406-0.656,0.208-0.571-0.086-1.198-0.656-1.407-0.143-0.052-0.264-0.069-0.406-0.062zm-10.532,3.031c-0.535,0.027-1.023,0.371-1.218,0.906-0.261,0.713,0.099,1.49,0.812,1.75,0.713,0.261,1.521-0.099,1.781-0.812,0.261-0.713-0.13-1.49-0.843-1.75-0.179-0.065-0.353-0.103-0.532-0.094zm18.938,0c-0.535,0.027-1.024,0.371-1.219,0.906-0.26,0.713,0.099,1.49,0.813,1.75,0.713,0.261,1.52-0.099,1.781-0.812,0.26-0.713-0.131-1.49-0.844-1.75-0.178-0.065-0.353-0.103-0.531-0.094zm-28.656,0.562c-0.429,0.022-0.813,0.291-0.969,0.719-0.209,0.571,0.086,1.198,0.656,1.407,0.571,0.208,1.198-0.086,1.406-0.657,0.209-0.57-0.086-1.198-0.656-1.406-0.143-0.052-0.295-0.07-0.437-0.063zm18.937,0c-0.428,0.022-0.844,0.291-1,0.719-0.208,0.571,0.086,1.198,0.656,1.407,0.571,0.208,1.229-0.086,1.438-0.657,0.208-0.57-0.086-1.198-0.657-1.406-0.142-0.052-0.294-0.07-0.437-0.063zm-10.531,3.032c-0.535,0.027-1.024,0.371-1.219,0.906-0.26,0.713,0.099,1.49,0.813,1.75,0.713,0.26,1.52-0.099,1.781-0.812,0.26-0.714-0.1-1.521-0.813-1.782-0.178-0.065-0.384-0.071-0.562-0.062zm18.937,0c-0.535,0.027-1.023,0.371-1.219,0.906-0.26,0.713,0.1,1.49,0.813,1.75s1.521-0.099,1.781-0.812c0.261-0.714-0.099-1.521-0.812-1.782-0.179-0.065-0.384-0.071-0.563-0.062zm-28.656,0.531c-0.428,0.021-0.812,0.291-0.969,0.719-0.208,0.57,0.086,1.229,0.656,1.437,0.571,0.209,1.198-0.086,1.407-0.656,0.208-0.571-0.086-1.229-0.657-1.437-0.142-0.053-0.294-0.07-0.437-0.063zm18.937,0c-0.428,0.021-0.812,0.291-0.968,0.719-0.209,0.57,0.086,1.229,0.656,1.437,0.571,0.209,1.198-0.085,1.406-0.656,0.209-0.571-0.086-1.229-0.656-1.437-0.143-0.053-0.295-0.07-0.438-0.063zm-10.531,3.031c-0.535,0.027-1.023,0.372-1.219,0.906-0.26,0.714,0.131,1.521,0.844,1.782,0.713,0.26,1.49-0.131,1.75-0.844,0.261-0.713-0.099-1.49-0.812-1.75-0.179-0.065-0.384-0.103-0.563-0.094zm18.938,0c-0.535,0.027-1.024,0.372-1.219,0.906-0.26,0.714,0.131,1.521,0.844,1.782,0.713,0.26,1.489-0.131,1.75-0.844,0.26-0.713-0.1-1.49-0.813-1.75-0.178-0.065-0.384-0.103-0.562-0.094zm-28.657,0.563c-0.428,0.021-0.812,0.291-0.968,0.719-0.209,0.57,0.086,1.197,0.656,1.406,0.571,0.208,1.198-0.086,1.406-0.656,0.209-0.571-0.086-1.198-0.656-1.407-0.143-0.052-0.295-0.069-0.438-0.062zm18.938,0c-0.428,0.021-0.812,0.291-0.969,0.719-0.208,0.57,0.086,1.197,0.657,1.406,0.57,0.208,1.197-0.086,1.406-0.656,0.208-0.571-0.086-1.198-0.656-1.407-0.143-0.052-0.295-0.069-0.438-0.062zm-13.656,1.219c-0.76,0-1.375,0.615-1.375,1.374,0,0.76,0.615,1.376,1.375,1.376,0.759,0,1.375-0.616,1.375-1.376,0-0.759-0.616-1.374-1.375-1.374zm18.937,0c-0.759,0-1.375,0.615-1.375,1.374,0,0.76,0.616,1.376,1.375,1.376,0.76,0,1.375-0.616,1.375-1.376,0-0.759-0.615-1.374-1.375-1.374zm-28.687,0.562c-0.608,0-1.094,0.486-1.094,1.094,0,0.607,0.486,1.094,1.094,1.094,0.607,0,1.094-0.487,1.094-1.094,0-0.608-0.487-1.094-1.094-1.094zm18.937,0c-0.607,0-1.093,0.486-1.093,1.094,0,0.607,0.486,1.094,1.093,1.094,0.608,0,1.094-0.487,1.094-1.094,0-0.608-0.486-1.094-1.094-1.094zm-6.031,1.25c-0.535,0.027-1.055,0.371-1.25,0.906-0.26,0.713,0.131,1.49,0.844,1.75,0.713,0.261,1.489-0.099,1.75-0.812,0.26-0.713-0.1-1.49-0.813-1.75-0.178-0.065-0.353-0.103-0.531-0.094zm18.938,0c-0.536,0.027-1.055,0.371-1.25,0.906-0.261,0.713,0.13,1.49,0.843,1.75,0.713,0.261,1.49-0.099,1.75-0.812,0.261-0.713-0.099-1.49-0.812-1.75-0.179-0.065-0.353-0.103-0.531-0.094zm-28.688,0.562c-0.428,0.022-0.812,0.291-0.969,0.719-0.208,0.571,0.086,1.198,0.657,1.407,0.57,0.208,1.197-0.086,1.406-0.657,0.208-0.57-0.086-1.198-0.656-1.406-0.143-0.052-0.295-0.07-0.438-0.063zm18.938,0c-0.429,0.022-0.813,0.291-0.969,0.719-0.209,0.571,0.086,1.198,0.656,1.407,0.571,0.208,1.198-0.086,1.406-0.657,0.209-0.57-0.086-1.198-0.656-1.406-0.143-0.052-0.295-0.07-0.437-0.063z" />
    <path
       id="rasn"
       d="M25.5,2l-2.25,1.4688v7.0312l-3.938-2.1875-2,1.1563v2.4692l5.844,3.312v4.625l-4.344-2.313v4.782l-4.124-2.375v-6.781l-2.25-1.313-1.876,1.25v4.531l-6.1558-3.531-2.4062,1.219v2.812l6.25,3.406-3.9062,2.188v2.562l2.1562,1.094,5.781-3.406,4.031,2.312-4,2.5,4.126,2.344,0.093,0.094-4.031,2.312-5.7812-3.406-2.3126,1.25v2.563l4.0626,2.031-6.4688,3.531v2.813l2.625,1.094,6.156-3.469v4.469l1.875,1.25,2.219-1.376v-6.656l4.031-2.344v4.907l4.25-2.719v4.625l-5.844,3.344v2.469l2,1.156,3.938-2.219v7.063l2.25,1.437,2.281-1.437v-7.063l3.938,2.219,2-1v-2.625l-5.844-3.344v-4.625l4.125,2.531v-4.625l4.344,2.438v6.687l2.031,1.157,2.094-1.157v-4.406l5.843,3.313,2.532-1.126v-2.781l-5.938-3.531,3.719-2.094v-2.406l-1.906-1.344-5.969,3.313-4.219-2.188,4.094-2.375-3.969-2.468,4.094-2.626,5.969,3.532,2-1.125v-2.5l-3.875-2.188,6.187-3.5v-2.625l-2.219-1.375-6.343,3.438v-4.657l-2.157-0.937-2.031,0.937v7.282l-4.281,2.312v-5.031l-4.125,2.5v-4.625l6.063-3.438v-2.187l-2.063-1.375-4.094,2.25v-7.0312l-2.281-1.4688zm68.438,1.9375l-90,90,2.125,2.124,90-90-2.124-2.125zm-70.282,21.594h3.938l1.906,3.313-1.812,3.125h-3.938l-2.125-3.125,2.031-3.313zm44.438,16.438c-8.046,0-14.563,6.521-14.563,14.562,0,0.182,0.024,0.35,0.031,0.531-0.181-0.012-0.349-0.062-0.531-0.062-4.328,0-7.843,3.515-7.843,7.844,0,0.053,0.031,0.103,0.031,0.156-0.62-0.186-1.26-0.312-1.938-0.312-3.713,0-6.719,3.009-6.719,6.718,0,3.713,3.006,5.125,6.719,5.125h43.188c6.364-0.002,11.531-5.166,11.531-11.531,0-6.364-5.167-11.5-11.531-11.5-1.438,0-2.799,0.271-4.063,0.75-1.098-6.956-7.051-12.281-14.312-12.281zm-17.094,38.343l-5.562,15.25,1.187,0.438,5.719-15.688h-1.344zm6.344,0l-5.563,15.25,1.188,0.438,5.719-15.688h-1.344zm6.344,0l-5.563,15.25,1.187,0.438,5.719-15.688h-1.343zm6.343,0l-5.562,15.25,1.187,0.438,5.719-15.688h-1.344zm6.344,0l-5.563,15.25,1.188,0.438,5.719-15.688h-1.344zm6.344,0l-5.563,15.25,1.188,0.438,5.718-15.688h-1.343z" />
    <path
       id="sct"
       d="M33.469,15v11.938h3.125v-11.938h-3.125zm-13.813,3.406l-2.656,1.656,6.312,10.126,2.657-1.657-6.313-10.125zm30.938,0.313l-5.782,10.437,2.75,1.532,5.782-10.438-2.75-1.531zm-44.532,11.375l-1.5313,2.75,10.407,5.781,1.5-2.75-10.376-5.781zm28.968,0.468c-10.675,0-19.312,8.695-19.312,19.407,0,9.054,6.173,16.619,14.531,18.75-3.104,1.593-5.25,4.819-5.25,8.531,0,2.64,1.214,4.853,3.062,6.094,1.508,1.012,3.31,1.457,5.219,1.594v0.062h1.313,1.812,22.75,13.375,12.281c8.363,0,15.188-6.823,15.188-15.188,0-8.364-6.824-15.156-15.188-15.156-1.204,0-2.335,0.198-3.437,0.469-2.148-7.959-9.313-13.875-17.937-13.875-3.692,0-7.108,1.081-10,2.938-2.449-7.888-9.748-13.626-18.407-13.626zm29.219,0.376l-10.281,5.968,1.562,2.719,10.313-5.969-1.594-2.718zm-0.812,13.874c7.565,0,13.762,5.572,14.906,12.813l0.312,2.156,2.063-0.781c1.3-0.493,2.668-0.781,4.093-0.781,6.436,0,11.626,5.159,11.626,11.593,0,6.435-5.191,11.626-11.626,11.626h-12.281-13.375-24.562c-1.933,0-3.553-0.406-4.532-1.063-0.978-0.657-1.5-1.449-1.5-3.125,0-3.347,2.681-6.031,6.032-6.031,0.554,0,1.13,0.126,1.75,0.312l2.281,0.688v-2.407-0.187c0-4.067,3.246-7.313,7.313-7.313-0.059,0,0.097,0.036,0.5,0.063l2,0.125-0.094-2c-0.022-0.488-0.063-0.646-0.063-0.531,0-8.384,6.767-15.157,15.157-15.157zm-63.438,2.688v3.125h11.906v-3.125h-11.906zm13.562,11.156l-10.062,6.344,1.625,2.656,10.094-6.344-1.657-2.656zm8.438,10.282l-5.75,10.468,2.719,1.5,5.781-10.437-2.75-1.531z" />
    <path
       id="sctfg"
       d="M33.125,21.844c-2.855,0-5.477,0.915-7.625,2.468h15.25c-2.137-1.553-4.777-2.468-7.625-2.468zm-10.063,4.75c-0.625,0.757-1.182,1.582-1.624,2.468h23.312c-0.444-0.889-0.969-1.709-1.594-2.468h-20.094zm-2.5,4.75c-0.225,0.799-0.368,1.615-0.437,2.468h35.094c-1.615-1.044-3.527-1.656-5.594-1.656-1.289,0-2.523,0.258-3.656,0.688-0.083-0.522-0.202-1.001-0.344-1.5h-25.063zm-4.093,4.75c-1.125,0.571-2.075,1.411-2.75,2.468h45.469c-0.368-0.895-0.846-1.72-1.438-2.468h-41.281zm-3.688,4.75c-0.106,0.484-0.156,0.984-0.156,1.5v0.156c-0.555-0.166-1.112-0.312-1.719-0.312-1.3016,0-2.5151,0.423-3.4998,1.124h52.532c0.021-0.274,0.031-0.532,0.031-0.812,0-0.565-0.069-1.116-0.157-1.656h-47.031zm-7.3122,4.75c-0.3667,0.752-0.5714,1.581-0.5938,2.468h53.437c0.492-0.762,0.879-1.585,1.157-2.468h-54zm-0.125,4.75c0.9142,1.759,3.0657,2.468,5.5622,2.468h38.719c2.563,0,4.913-0.925,6.719-2.468h-51zm67.718,2.344c-2.347,0-4.514,0.754-6.281,2.031h12.563c-1.757-1.277-3.939-2.031-6.282-2.031zm-8.281,3.906c-0.514,0.623-0.948,1.302-1.312,2.031h19.156c-0.365-0.731-0.798-1.407-1.313-2.031h-16.531zm-2.031,3.906c-0.186,0.657-0.318,1.329-0.375,2.031h28.875c-1.328-0.859-2.925-1.343-4.625-1.343-1.06,0-2.068,0.209-3,0.562-0.068-0.429-0.165-0.839-0.281-1.25h-20.594zm-3.375,3.906c-0.924,0.47-1.695,1.162-2.25,2.032h37.375c-0.303-0.737-0.701-1.416-1.188-2.032h-33.937zm-3.031,3.906c-0.087,0.399-0.125,0.827-0.125,1.25v0.126c-0.457-0.137-0.939-0.25-1.438-0.25-1.07,0-2.065,0.329-2.875,0.906h43.188c0.017-0.226,0.031-0.426,0.031-0.656,0-0.465-0.053-0.932-0.125-1.376h-38.656zm-6,3.907c-0.302,0.618-0.482,1.301-0.5,2.031h43.937c0.405-0.627,0.709-1.305,0.938-2.031h-44.375zm-0.125,3.906c0.752,1.447,2.509,2.031,4.562,2.031h31.844c2.107,0,4.047-0.762,5.531-2.031h-41.937z" />
    <path
       id="scttsra"
       d="M73.906,0v8.5312h2.219v-8.5312h-2.219zm-9.875,2.4375l-1.875,1.1875,4.5,7.219,1.906-1.1878-4.531-7.2187zm22.125,0.2187l-4.125,7.4378,1.938,1.094,4.125-7.438-1.938-1.0938zm-31.844,8.1248l-1.062,1.969,7.406,4.125,1.094-1.969-7.438-4.125zm20.719,0.344c-7.625,0-13.812,6.193-13.812,13.844s6.186,13.845,13.812,13.843c7.619,0,13.781-6.192,13.781-13.843,0-7.65-6.162-13.844-13.781-13.844zm20.875,0.25l-7.375,4.281,1.125,1.938,7.375-4.25-1.125-1.969zm-45.906,11.844v2.25h8.5v-2.25h-8.5zm41.5,0.125v2.25h8.5v-2.25h-8.5zm-31.812,7.844l-7.188,4.531,1.156,1.875,7.219-4.5-1.187-1.906zm30.25,0.468l-1.063,1.969,7.406,4.156,1.094-1.969-7.437-4.156zm-54.032,3.344c-9.166,0-16.594,7.432-16.594,16.594,0,0.207,0.054,0.386,0.063,0.594-0.207-0.014-0.387-0.032-0.594-0.032-4.931,0-8.9372,3.975-8.9372,8.906,0,0.061,0.0312,0.127,0.0312,0.188-0.7072-0.211-1.4466-0.375-2.2188-0.375-4.23,0-7.6562,3.43-7.6562,7.656,0,4.23,3.4262,5.844,7.6562,5.844h49.219c7.251-0.001,13.125-5.874,13.125-13.125,0-7.252-5.874-13.125-13.125-13.125-1.638,0-3.185,0.36-4.625,0.906-1.252-7.924-8.071-14.031-16.344-14.031zm48.375,3.469l-1.906,1.125,4.25,7.375,1.906-1.094-4.25-7.406zm-18.562,0.062l-4.125,7.469,1.968,1.094,4.126-7.469-1.969-1.094zm8.062,2.938v8.531h2.219v-8.531h-2.219zm-41.062,34.593l-8.375,14.376h5.968l-4.781,9.562,14.375-14.375h-7.187l5.969-9.563h-5.969zm-16.281,2.657l-6.313,17.343,1.344,0.5,6.5-17.843h-1.531zm7.218,0l-6.312,17.343,1.344,0.5,6.5-17.843h-1.532zm21.688,0l-6.313,17.343,1.344,0.5,6.5-17.843h-1.531zm7.218,0l-6.312,17.343,1.375,0.5,6.5-17.843h-1.563z" />
    <path
       id="shra"
       d="M51.188,6.8125c-12.627,0-22.762,10.028-23.5,22.468-6.17,0.593-10.961,5.238-12.063,11.25-0.362-0.038-0.648-0.156-1.031-0.156-6.7074,0-12.219,5.485-12.219,12.187,0,3.353,1.5923,6.174,3.9375,7.75,2.3476,1.577,5.2555,2.094,8.2815,2.094h31.156,16.969,15.625c10.619,0,19.281-8.66,19.281-19.281s-8.66-19.281-19.281-19.281c-1.612,0-3.065,0.434-4.532,0.812-2.683-10.171-11.627-17.844-22.624-17.844zm0,4.5315c9.607,0,17.453,7.119,18.906,16.312l0.437,2.75,2.625-1.062c1.65-0.626,3.378-0.938,5.188-0.938,8.171,0,14.75,6.55,14.75,14.719,0,8.171-6.579,14.719-14.75,14.719h-15.625-16.969-31.156c-2.455,0-4.507-0.508-5.7502-1.344-1.2429-0.833-1.9376-1.809-1.9376-3.938,0-4.249,3.4328-7.656,7.6878-7.656,0.705,0,1.37,0.14,2.156,0.375l2.969,0.907v-3.063c0-0.14-0.056-0.14-0.063-0.219,0-0.128-0.012-0.127,0-0.156-0.002-0.012,0.002-0.058,0-0.062,0.119-5.058,4.196-9.094,9.282-9.094-0.074,0,0.173,0.058,0.687,0.094l2.531,0.124-0.094-2.531c-0.028-0.621-0.156-0.801-0.156-0.656,0-10.645,8.629-19.281,19.282-19.281zm-27.719,57.125l-9.031,24.781,1.937,0.719,9.313-25.5h-2.219zm17.219,0l-9.032,24.781,1.938,0.719,9.281-25.5h-2.187zm17.218,0l-9.031,24.781,1.937,0.719,9.282-25.5h-2.188zm17.188,0l-9,24.781,1.937,0.719,9.281-25.5h-2.218z" />
    <path
       id="skc"
       d="M47.812,0v17.062h4.469v-17.062h-4.469zm-19.718,4.875l-3.782,2.375,9,14.438,3.782-2.344-9-14.469zm44.187,0.4375l-8.25,14.906,3.938,2.187,8.219-14.906-3.907-2.1875zm-63.625,16.25l-2.1874,3.938,14.843,8.25,2.188-3.906-14.844-8.282zm41.406,0.657c-15.25,0-27.624,12.417-27.624,27.719,0,15.3,12.374,27.721,27.624,27.718,15.24,0,27.594-12.416,27.594-27.718s-12.356-27.719-27.594-27.719zm41.75,0.531l-14.718,8.531,2.218,3.907,14.719-8.532-2.219-3.906zm-91.812,23.688v4.468h17v-4.468h-17zm83,0.25v4.5h17v-4.5h-17zm-63.594,15.687l-14.406,9.031,2.3438,3.813,14.406-9.063-2.344-3.781zm60.5,0.969l-2.187,3.906,14.875,8.281,2.187-3.937-14.875-8.25zm-11.312,13.625l-3.875,2.219,8.5,14.781,3.875-2.25-8.5-14.75zm-37.156,0.093l-8.25,14.938,3.906,2.156,8.25-14.937-3.906-2.157zm16.093,5.876v17.062h4.469v-17.062h-4.469z" />
    <path
       id="sn"
       d="m42.732,50.287,3.955,5.841,7.365,0,3.398-5.841-3.58-6.22-7.379,0zm3.033,46.974,0-13.207-7.379,4.15-3.759-2.152,0-4.653,10.943-6.22,0-8.68-7.939,5.102,0-9.196-7.589,4.374,0,12.468-4.151,2.572-3.508-2.321,0-8.356-11.518,6.498-4.919-2.07,0-5.27,12.089-6.609-7.561-3.801,0-4.822,4.291-2.349,10.845,6.386,7.533-4.346-0.182-0.139-7.701-4.417,7.477-4.64-7.505-4.346-10.844,6.372-4.068-2.026,0-4.808,7.339-4.123-11.713-6.36,0-5.269,4.5-2.319,11.544,6.666,0-8.497,3.48-2.348,4.264,2.46-0.028,12.718,7.756,4.43-0.027-8.986,8.134,4.375,0-8.68-10.943-6.233,0-4.612,3.759-2.18,7.379,4.151,0-13.18,4.222-2.768,4.261,2.768,0,13.18,7.646-4.235,3.845,2.544,0,4.151-11.322,6.414,0,8.68,7.744-4.724,0,9.448,7.979-4.348,0-13.598,3.844-1.789,4.038,1.789,0,8.694,11.879-6.416,4.153,2.53,0,4.919-11.601,6.597,7.254,4.066,0,4.697-3.76,2.083-11.138-6.583-7.702,4.892,7.449,4.642-7.673,4.416,7.926,4.15,11.138-6.221,3.578,2.53,0,4.487-6.988,3.927,11.126,6.61,0,5.188-4.71,2.152-10.931-6.221,0,8.232-3.927,2.194-3.843-2.194,0-12.496-8.092-4.611,0,8.68-7.744-4.725,0,8.68,10.944,6.22,0,4.92-3.776,1.886-7.337-4.15,0,13.207-4.26,2.738z" />
    <path
       id="tsra"
       d="M51.312,3.5625c-13.094,0-23.718,10.63-23.718,23.718,0,0.296,0.08,0.548,0.094,0.844-0.296-0.02-0.58-0.063-0.876-0.063-7.044,0-12.75,5.706-12.75,12.75,0,0.088,0.032,0.164,0.032,0.25-1.008-0.302-2.054-0.5-3.156-0.5-6.0435,0-10.938,4.901-10.938,10.938,0,6.043,4.8945,8.312,10.938,8.312h70.312c10.358,0,18.75-8.39,18.75-18.75,0-10.358-8.391-18.75-18.75-18.75-2.34,0-4.568,0.502-6.625,1.282-1.788-11.321-11.495-20.032-23.313-20.032zm-4.593,58.656l-11.969,20.531h8.562l-6.843,13.688,20.531-20.532h-10.281l8.562-13.687h-8.562zm-23.25,3.781l-9.031,24.812,1.937,0.719,9.313-25.531h-2.219zm10.343,0l-9.031,24.812,1.938,0.719,9.281-25.531h-2.188zm30.969,0l-9.031,24.812,1.938,0.719,9.281-25.531h-2.188zm10.313,0l-9,24.812,1.937,0.719,9.281-25.531h-2.218z" />
    <path
       id="wind"
       d="M62.781,0.0062768c-1.621,0.18889-7.737,6.4392-19.093,25.311,3.0187,0.032,5.663,1.6919,7.0938,4.1247,11.41-20.557,13.346-28.772,12.25-29.404-0.0685-0.039435-0.14194-0.043841-0.25-0.031248zm-19.187,29.467c-2.2942,0-4.1562,1.8647-4.1562,4.156s1.862,4.156,4.1562,4.156,4.1562-1.8647,4.1562-4.156-1.862-4.156-4.1562-4.156zm-7.2188,0.0625c-23.477,0.41497-31.531,2.8316-31.531,4.0935,0,1.2609,8.0532,3.6795,31.531,4.0935-0.68785-1.2069-1.0938-2.6066-1.0938-4.0935,0-1.4859,0.40594-2.8856,1.0938-4.0935zm14.406,8.2495c-1.4238,2.4358-4.0448,4.0887-7.0625,4.1247,12.105,20.107,18.216,25.878,19.312,25.248,1.0943-0.63196-0.84705-8.8283-12.25-29.373zm-50.468,2.062c-0.063218-0.0073-0.11601,0.0082-0.15625,0.03125-0.6438,0.373,0.50625,5.156,7.0312,16.999,0.9162-1.38,2.4383-2.304,4.1875-2.438-6.5661-10.832-10.114-14.483-11.062-14.592zm65.062,0c-0.06321-0.0073-0.11601,0.0082-0.15625,0.03125-0.643,0.37298,0.50625,5.1567,7.0312,16.999,0.9172-1.3799,2.4393-2.3034,4.1875-2.4373-6.566-10.833-10.113-14.484-11.061-14.593zm-25.938,3.0311,0,57.121,8.3125,0,0-43.935c-2.379-3.518-5.134-7.856-8.31-13.186zm-27.655,14.28c-1.5295,0-2.75,1.2223-2.75,2.7498s1.2205,2.7811,2.75,2.7811,2.7812-1.2536,2.7812-2.7811-1.2518-2.7498-2.7812-2.7498zm65.094,0c-1.5295,0-2.7812,1.2223-2.7812,2.7498s1.2518,2.7811,2.7812,2.7811c1.5295,0,2.7812-1.2536,2.7812-2.7811s-1.2518-2.7498-2.7812-2.7498zm-60.125,0.344c0.35844,0.73095,0.59375,1.5372,0.59375,2.4061,0,0.87594-0.2293,1.7014-0.59375,2.4373,13.471-0.28298,18.156-1.6671,18.156-2.4061,0-0.74195-4.6902-2.1544-18.156-2.4373zm65.094,0c0.35744,0.73095,0.5625,1.5372,0.5625,2.4061,0,0.87594-0.20306,1.7014-0.5625,2.4373,13.471-0.283,18.156-1.667,18.156-2.406,0-0.742-4.69-2.154-18.156-2.437zm-74.656,5.468c-6.523,11.842-7.675,16.627-7.0312,16.999,0.644,0.371,4.2152-3.01,11.219-14.562-1.7502-0.135-3.2694-1.056-4.1875-2.437zm65.062,0c-6.524,11.842-7.675,16.623-7.031,16.999,0.643,0.37,4.216-3.007,11.219-14.562-1.752-0.135-3.27-1.056-4.188-2.437zm-57.688,2.5311c-2.15,3.6138-3.9764,6.4613-5.5312,8.7182l-0.0308,25.78h5.5312l0.03125-34.498zm65.094,0c-2.1496,3.6137-4.0086,6.4613-5.5625,8.7182v25.78h5.5312l0.03125-34.498z" />
  </defs>
  <text
     id="text3145"
     x="520.36072"
     y="209.58005"
     font-size="100px"
     style="font-style:normal;font-variant:normal;font-weight:normal;font-stretch:normal;font-size:100px;line-height:125%;font-family:Ubuntu;-inkscape-font-specification:'Ubuntu, Normal';text-align:end;writing-mode:lr-tb;text-anchor:end"
     sodipodi:linespacing="125%">H1</text>
  <text
     id="text3151"
     x="520.36072"
     y="354.31656"
     font-size="100px"
     style="font-style:normal;font-variant:normal;font-weight:normal;font-stretch:normal;font-size:100px;line-height:125%;font-family:Ubuntu;-inkscape-font-specification:'Ubuntu, Normal';text-align:end;writing-mode:lr-tb;text-anchor:end"
     sodipodi:linespacing="125%">L1</text>
  <g
     transform="scale(3.25) translate(5.055 20.166)"
     id="g3123">
    <use
       xlink:href="#ICON_ONE"
       id="use3125" />
  </g>
  <text
     id="text3141"
     x="98.154922"
     y="62.111835"
     font-size="35px"
     style="font-style:normal;font-variant:normal;font-weight:normal;font-stretch:normal;font-size:35px;line-height:125%;font-family:Ubuntu;-inkscape-font-specification:'Ubuntu, Normal';text-align:center;writing-mode:lr-tb;text-anchor:middle"
     sodipodi:linespacing="125%">London</text>
  <text
     id="text3143"
     x="446.26932"
     y="121.70689"
     font-size="35px"
     style="font-size:35px;text-anchor:middle;font-family:Ubuntu;-inkscape-font-specification:'Ubuntu, Normal';font-weight:normal;font-style:normal;font-stretch:normal;font-variant:normal;text-align:center;writing-mode:lr;line-height:125%;"
     sodipodi:linespacing="125%">High</text>
  <text
     id="text3147"
     x="548.30981"
     y="182.48717"
     font-size="64px"
     style="font-style:normal;font-variant:normal;font-weight:normal;font-stretch:normal;font-size:64px;line-height:125%;font-family:Ubuntu;-inkscape-font-specification:'Ubuntu, Normal';text-align:center;writing-mode:lr-tb;text-anchor:middle"
     sodipodi:linespacing="125%">°C</text>
  <text
     id="text3149"
     x="492.80057"
     y="275.13895"
     font-size="35px"
     style="font-size:35px;text-anchor:middle;font-family:Ubuntu;-inkscape-font-specification:'Ubuntu, Normal';font-weight:normal;font-style:normal;font-stretch:normal;font-variant:normal;text-align:center;writing-mode:lr;line-height:125%;"
     sodipodi:linespacing="125%">Feels Like</text>
  <text
     id="text3153"
     x="548.30981"
     y="333.13455"
     font-size="64px"
     style="font-size:64.00000095px;text-anchor:middle;font-family:Ubuntu;-inkscape-font-specification:'Ubuntu, Normal';font-weight:normal;font-style:normal;font-stretch:normal;font-variant:normal;text-align:center;writing-mode:lr;line-height:125%;"
     sodipodi:linespacing="125%">°C</text>
  <path
     d="m 298.5,521.28112 0,237.43776 3,0 0,-237.43776 -3,0 z"
     id="path3199"
     inkscape:connector-curvature="0" />
  <text
     style="font-size:12px;text-anchor:middle"
     font-size="12px"
     y="796.29749"
     x="548.54248"
     id="text3333">DATE_VALPLACE</text>
  <text
     id="text3141-9"
     x="537.5813"
     y="45.180622"
     font-size="35px"
     style="font-style:normal;font-variant:normal;font-weight:normal;font-stretch:normal;font-size:35px;line-height:125%;font-family:Ubuntu;-inkscape-font-specification:'Ubuntu, Normal';text-align:center;writing-mode:lr-tb;text-anchor:middle"
     sodipodi:linespacing="125%">DATE</text>
  <g
     id="g7397"
     transform="matrix(0.2305577,0,0,0.2305577,226.22154,379.90031)"
     style="">
    <g
       id="g7383"
       style="fill:none;stroke:#dc241f">
      <circle
         id="circle7385"
         r="215"
         cy="260"
         cx="320"
         style="stroke-width:90" />
    </g>
    <g
       id="g7387"
       style="fill:none;stroke:#0019a8">
      <path
         id="path7389"
         d="m 0,260 640,0"
         inkscape:connector-curvature="0"
         style="stroke-width:100" />
    </g>
  </g>
  <path
     d="m 243.88498,421.42916 c 3.39889,-9.879 7.92215,-16.96052 15.26386,-23.89673 13.35444,-12.61686 25.45292,-17.08045 44.24995,-16.32545 10.68418,0.42912 12.98325,0.96878 21.63849,5.07914 12.21301,5.79992 22.42702,15.68795 27.90001,27.00955 2.1465,4.44038 4.2638,9.61046 4.70506,11.48909 l 0.8023,3.41565 -9.96035,0 -9.96033,0 -2.80968,-5.80405 c -3.80773,-7.86565 -11.14785,-14.91334 -19.52803,-18.7499 -18.93117,-8.66696 -43.51994,0.51082 -51.82976,19.34548 l -2.29798,5.20847 -10.25159,0 -10.2516,0 2.32965,-6.77125 z"
     id="path7403"
     inkscape:connector-curvature="0"
     style="" />
  <path
     d="m 226.71836,440 0,-10.55753 73.28164,0 73.28163,0 0,10.55753 0,10.55752 -73.28163,0 -73.28164,0 0,-10.55752 z"
     id="path7405"
     inkscape:connector-curvature="0"
     style="" />
  <path
     d="m 283.36376,496.65571 c -11.11725,-3.59429 -17.50993,-7.48355 -25.52356,-15.52848 -7.51814,-7.54744 -13.4577,-17.57599 -14.979,-25.29095 l -0.79598,-4.03669 9.78123,0.004 9.78124,0.004 3.60609,6.90127 c 8.76707,16.77822 30.08792,24.8088 48.45493,18.2507 7.80214,-2.78581 17.3919,-11.39195 21.31024,-19.12444 l 3.05739,-6.03344 9.93922,0 9.93923,0 -0.74697,3.41566 c -2.76042,12.62246 -16.34707,30.00266 -28.61138,36.59994 -13.33862,7.17521 -31.85862,9.15798 -45.21268,4.84051 z"
     id="path7407"
     inkscape:connector-curvature="0"
     style="" />
  <path
     d="m 243.04121,424.78476 c 3.46634,-14.01117 18.10706,-31.28271 32.50432,-38.34509 6.93583,-3.40225 8.09593,-3.57452 24.07559,-3.57452 16.60049,0 16.88585,0.0476 25.46227,4.25393 14.72416,7.22134 27.27944,22.10967 31.72924,37.62525 l 0.99118,3.45608 -9.53927,-0.004 -9.53927,-0.004 -3.59976,-6.8892 c -9.17003,-17.54941 -29.59618,-25.39689 -48.84041,-18.76382 -8.14422,2.80713 -18.12897,11.64464 -22.17317,19.62549 l -3.05736,6.03343 -9.4292,0 -9.42919,0 0.84503,-3.41566 z"
     id="path7409"
     inkscape:connector-curvature="0"
     style="" />
  <path
     d="m 358.30626,427.96388 c -0.0435,-0.14944 -0.29949,-1.17997 -0.56858,-2.29004 -1.0324,-4.25916 -4.72697,-12.64413 -7.57403,-17.18955 -5.78206,-9.23118 -14.51997,-16.98749 -24.79122,-22.00615 -8.57061,-4.18774 -11.38822,-4.87043 -21.90916,-5.30844 -6.73766,-0.28051 -11.85685,0.0507 -17.13815,1.10884 -10.14664,2.0329 -18.65003,6.83195 -27.92401,15.75943 -4.93999,4.75539 -8.45497,9.49682 -11.33713,15.29287 -1.58973,3.19694 -2.44696,5.33338 -4.31113,10.74446 -0.75617,2.19493 -1.39701,3.92742 -1.42416,3.85 -0.0771,-0.2202 1.01128,-4.43752 1.66998,-6.47093 5.95003,-18.36737 20.67573,-33.01201 38.9016,-38.68744 6.29108,-1.959 11.36611,-2.72304 18.08752,-2.72304 4.58245,0 6.86967,0.19634 10.86804,0.93293 21.18067,3.90194 38.72607,18.99989 45.71222,39.33569 0.75852,2.20793 2.10715,7.13858 2.10715,7.70376 0,0.31132 -0.27409,0.27239 -0.36894,-0.0524 z"
     id="path7411"
     inkscape:connector-curvature="0"
     style="" />
  <path
     d="m 229.20247,428.89542 0,-0.50459 70.79751,0 70.79752,0 0,0.46543 0,0.46544 -70.79752,0.0392 -70.79751,0.0391 0,-0.50456 z"
     id="path7413"
     inkscape:connector-curvature="0"
     style="" />
  <path
     d="m 229.20247,450.98084 0,-0.38816 70.79751,0 70.79752,0 0,0.38816 0,0.38814 -70.79752,0 -70.79751,0 0,-0.38814 z"
     id="path7415"
     inkscape:connector-curvature="0"
     style="" />
  <path
     d="m 229.20247,450.98084 0,-0.38816 70.79751,0 70.79752,0 0,0.38816 0,0.38814 -70.79752,0 -70.79751,0 0,-0.38814 z"
     id="path7417"
     inkscape:connector-curvature="0"
     style="" />
  <path
     d="m 295.63803,498.76967 c -7.04471,-0.37401 -14.34619,-2.37052 -21.80444,-5.96217 -5.73978,-2.76411 -9.90511,-5.8251 -15.38926,-11.3091 -4.93406,-4.93399 -8.27701,-9.33502 -11.29315,-14.86768 -2.17211,-3.98438 -3.46501,-7.44173 -4.31382,-11.53556 -0.29214,-1.40896 -0.56723,-2.71896 -0.61135,-2.91107 l -0.0801,-0.34933 9.74538,10e-4 9.74538,0.001 1.30504,2.52115 c 3.8755,7.48688 5.12657,9.37529 8.54786,12.90234 10.58975,10.91714 27.33582,14.85572 41.90667,9.85623 4.52679,-1.55321 9.71183,-5.02178 14.23632,-9.52349 3.95798,-3.93805 5.70614,-6.36706 8.52421,-11.84406 l 2.01474,-3.91574 9.8413,0 9.84127,0 -0.10414,0.69389 c -0.20635,1.37611 -1.29896,5.47159 -1.86515,6.99137 -1.21397,3.25842 -3.70186,7.9942 -6.03567,11.48906 -2.93329,4.39255 -5.64624,7.67264 -9.63633,11.65078 -4.79845,4.78405 -8.20151,7.35688 -12.79885,9.67631 -9.27146,4.6776 -20.81755,7.01528 -31.77592,6.4335 z"
     id="path7419"
     inkscape:connector-curvature="0"
     style="" />
  <path
     d="m 295.07056,451.71838 c 2.71118,-0.0239 7.14767,-0.0239 9.85887,0 2.71119,0.0239 0.49294,0.0433 -4.92944,0.0433 -5.42238,0 -7.64062,-0.0195 -4.92943,-0.0433 z"
     id="path7421"
     inkscape:connector-curvature="0"
     style="" />
  <path
     d="m 229.20247,450.98084 0,-0.38816 70.79751,0 70.79752,0 0,0.38816 0,0.38814 -70.79752,0 -70.79751,0 0,-0.38814 z"
     id="path7423"
     inkscape:connector-curvature="0"
     style="" />
  <path
     d="m 295.26463,499.55854 c -2.00781,-0.19887 -4.8738,-0.58939 -6.28793,-0.85679 -21.19625,-4.00786 -38.57057,-19.0286 -45.61675,-39.43732 -0.75551,-2.18825 -2.04737,-6.98352 -2.04737,-7.5996 0,-0.29131 0.23775,-0.29711 10.58342,-0.25812 l 10.5834,0.04 0.14841,0.46577 c 0.0817,0.25617 0.38966,1.11839 0.68455,1.916 0.29487,0.79765 0.50016,1.48624 0.45619,1.53021 -0.0442,0.0439 -0.50397,-0.76583 -1.02216,-1.79957 l -0.94216,-1.87952 -9.75418,0 c -5.36479,0 -9.79239,0.0383 -9.83909,0.0849 -0.13976,0.13977 1.05318,5.61962 1.57782,7.24866 1.01311,3.14562 2.67828,6.68144 4.77481,10.13878 2.7647,4.55925 5.56661,8.09025 9.74137,12.27619 7.22282,7.2422 12.95162,10.92679 22.14726,14.24447 7.34325,2.64938 14.25847,3.66602 21.87666,3.21618 9.48263,-0.55991 18.03219,-2.75886 25.49839,-6.55819 11.56269,-5.88392 24.52377,-21.30854 28.74434,-34.20782 0.42794,-1.3079 1.49318,-5.70771 1.49419,-6.17149 5.5e-4,-0.25594 -0.57581,-0.2717 -9.93499,-0.2717 l -9.93558,0 -1.25222,2.50076 c -0.68871,1.37539 -1.28389,2.46906 -1.32261,2.43035 -0.0388,-0.0388 0.11381,-0.48286 0.33914,-0.987 0.22523,-0.50413 0.67275,-1.6502 0.99446,-2.54679 l 0.58495,-1.63023 10.57425,-0.04 c 10.09841,-0.038 10.57421,-0.0274 10.57421,0.23988 0,0.42455 -1.14686,4.87412 -1.70921,6.63135 -3.24768,10.14835 -9.74007,19.89643 -17.94338,26.94131 -8.95933,7.69413 -19.46773,12.37207 -31.58244,14.05928 -1.70177,0.237 -10.56588,0.44064 -12.18775,0.28 z"
     id="path7425"
     inkscape:connector-curvature="0"
     style="" />
  <path
     d="m 294.19443,499.40488 c -0.25616,-0.0384 -1.66125,-0.24338 -3.12241,-0.45524 -13.43176,-1.94739 -26.40605,-8.93482 -35.48221,-19.10928 -6.38263,-7.15499 -10.72578,-15.09841 -13.23262,-24.20181 -0.87162,-3.16528 -1.03439,-3.96641 -0.82234,-4.04741 0.10033,-0.0384 4.85347,-0.0518 10.56244,-0.0294 l 10.37995,0.0404 0.52676,1.47495 c 0.28972,0.81121 0.50824,1.53074 0.48559,1.59888 -0.0227,0.0682 -0.38658,-0.57808 -0.80876,-1.43612 l -0.76761,-1.56007 -9.9162,0 -9.91621,0 0.0819,0.42694 c 0.3711,1.93226 0.78204,3.75368 0.83495,3.70077 0.0579,-0.058 -0.49,-3.04089 -0.67979,-3.70077 -0.0738,-0.2567 0.45985,-0.27166 9.67473,-0.27111 l 9.75289,5.8e-4 1.84224,3.53153 c 3.4403,6.59496 4.93028,8.77169 8.31845,12.15243 6.45913,6.445 14.50527,10.29127 24.07362,11.50786 2.19415,0.27899 7.30195,0.23654 9.626,-0.0799 4.10821,-0.55953 7.98326,-1.66499 10.94358,-3.12197 6.44994,-3.17446 13.64942,-9.75702 17.48082,-15.98282 0.42134,-0.68467 1.53963,-2.7661 2.48508,-4.62539 l 1.719,-3.38054 9.88549,-0.0412 9.8855,-0.0412 -9.94213,-0.0376 -9.94212,-0.0376 -0.84601,1.71463 c -0.4653,0.94305 -0.86315,1.65917 -0.88408,1.59139 -0.021,-0.0678 0.23399,-0.85684 0.56649,-1.75346 l 0.60452,-1.6302 10.49336,-0.04 10.49337,-0.04 -2.9e-4,0.42804 c -3.3e-4,0.513 -1.21638,5.12255 -1.84826,7.00601 -0.85903,2.56056 -1.79541,4.77161 -3.19764,7.55049 -5.74946,11.3939 -14.47501,20.32239 -25.69484,26.29237 -4.38584,2.33369 -10.16641,4.40734 -15.44814,5.54169 -4.28215,0.9197 -5.31446,1.0145 -11.72197,1.07647 -3.28758,0.0319 -6.18701,0.0263 -6.44319,-0.0123 l 0,2e-5 z m 8.92733,-0.50363 c 0.7638,-0.0585 -0.74038,-0.1045 -3.57093,-0.10916 -3.64998,-0.005 -5.40262,-0.0747 -6.90897,-0.27028 -1.11009,-0.14425 -2.29781,-0.29654 -2.63938,-0.33854 l -0.62104,-0.0764 0.54341,0.14459 c 0.49155,0.13077 3.64674,0.54059 5.20112,0.67545 1.10629,0.096 6.63837,0.0781 7.99579,-0.0258 z m 2.60056,-0.28987 c -0.23482,-0.0356 -0.61909,-0.0356 -0.85391,0 -0.23482,0.0356 -0.0427,0.0646 0.42696,0.0646 0.46966,0 0.6618,-0.0291 0.42695,-0.0646 z m 1.39914,-0.15065 c -0.14841,-0.0389 -0.42789,-0.0404 -0.62103,-0.004 -0.19312,0.037 -0.0718,0.0688 0.2699,0.0705 0.34155,0.001 0.49958,-0.0287 0.35113,-0.0675 l 0,0 z m 1.82247,-0.19494 c 0.81736,-0.16899 0.083,-0.18354 -0.85391,-0.0173 -0.52393,0.0932 -0.58217,0.12696 -0.23291,0.13475 0.25619,0.005 0.74524,-0.0472 1.08682,-0.118 z m -20.02825,-0.31941 c -0.25619,-0.0652 -0.6055,-0.11983 -0.77629,-0.12143 -0.24332,-10e-4 -0.22653,0.024 0.0775,0.12143 0.21348,0.0683 0.56281,0.12298 0.77631,0.12143 0.34863,-0.001 0.34073,-0.0156 -0.0776,-0.12143 z m 21.38971,0.0535 c -0.105,-0.0426 -0.31472,-0.0451 -0.46577,-0.005 -0.15101,0.0393 -0.065,0.0742 0.19111,0.0773 0.25617,0.004 0.37977,-0.0291 0.27466,-0.0716 l 0,0 z m 1.43317,-0.20868 c 0.41547,-0.10572 0.42386,-0.11848 0.0776,-0.11848 -0.21348,0 -0.59774,0.0532 -0.85392,0.11848 -0.41546,0.10573 -0.42385,0.11849 -0.0776,0.11849 0.21348,0 0.59775,-0.0532 0.85392,-0.11849 z m -24.10375,-0.10278 c -0.10671,-0.043 -0.28141,-0.043 -0.38815,0 -0.10671,0.0431 -0.0194,0.0784 0.19405,0.0784 0.2135,0 0.30083,-0.0353 0.1941,-0.0784 z m -0.70191,-0.14615 c -0.0518,-0.0518 -0.1855,-0.0573 -0.29756,-0.0123 -0.12385,0.0494 -0.087,0.0863 0.0937,0.0937 0.16363,0.007 0.25538,-0.0299 0.20377,-0.0817 l 0,0 z m 28.69819,-0.61641 c 7.6906,-1.95267 14.15206,-5.03801 19.46894,-9.29641 9.28238,-7.43441 17.68026,-18.71075 21.14144,-28.38788 0.3297,-0.92183 0.59585,-1.76022 0.59146,-1.86309 -0.005,-0.10279 -0.27288,0.54654 -0.59658,1.44316 -2.83948,7.86509 -8.15873,15.96739 -15.22625,23.1927 -5.19035,5.30623 -8.95783,8.1254 -14.3544,10.74131 -3.97914,1.92885 -7.74469,3.24306 -12.82115,4.47472 -0.89663,0.21754 -1.31581,0.35394 -0.93154,0.30314 0.38424,-0.0509 1.6119,-0.32425 2.72808,-0.60765 z m -29.31922,0.46114 c -0.0515,-0.0515 -0.18549,-0.057 -0.29756,-0.0123 -0.12384,0.0494 -0.087,0.0864 0.0937,0.0937 0.16363,0.007 0.25537,-0.0299 0.20377,-0.0817 l 0,0 z m -0.62104,-0.15515 c -0.0518,-0.0518 -0.18548,-0.0573 -0.29755,-0.0123 -0.12385,0.0494 -0.0872,0.0864 0.0937,0.0937 0.16364,0.007 0.25538,-0.0299 0.20377,-0.0817 l 0,0 z m -1.27763,-0.37197 c -0.17072,-0.0734 -0.41532,-0.13336 -0.5434,-0.13336 -0.14686,0 -0.11812,0.0493 0.0776,0.13336 0.17072,0.0734 0.41531,0.13336 0.5434,0.13336 0.14685,0 0.11812,-0.0493 -0.0775,-0.13336 z m -2.87226,-0.91456 c -3.25625,-1.15506 -5.30569,-2.00629 -7.91815,-3.28873 -3.70933,-1.82091 -6.24767,-3.43583 -9.47072,-6.02541 -0.8966,-0.72039 -1.5285,-1.18688 -1.4042,-1.03664 0.44534,0.53829 3.38052,2.78746 5.28564,4.05029 3.89186,2.57979 7.48141,4.31276 13.04164,6.29627 1.15281,0.41123 2.20078,0.74772 2.32888,0.74772 0.12799,0 -0.71032,-0.33458 -1.86309,-0.7435 z m -19.0967,-10.62064 c 0,-0.0254 -0.29694,-0.3223 -0.65984,-0.65984 l -0.65983,-0.61374 0.61372,0.65986 c 0.57074,0.61363 0.70596,0.73118 0.70596,0.61372 z m -1.39732,-1.23652 c 0,-0.0223 -1.17025,-1.19257 -2.60058,-2.60056 l -2.60057,-2.55999 2.56,2.60057 c 2.37833,2.41602 2.64115,2.67076 2.64115,2.55998 z m -6.27086,-6.56354 c -4.64579,-5.31398 -8.76814,-12.31479 -10.83016,-18.39237 -0.33315,-0.982 -0.56075,-1.54094 -0.50574,-1.24207 0.14754,0.80183 1.16304,3.57386 1.98334,5.41424 1.46573,3.28845 4.03985,7.62481 6.36696,10.72585 1.26895,1.69096 3.9073,4.81971 4.06429,4.81971 0.0442,0 -0.44139,-0.59642 -1.07869,-1.32536 z m -11.51477,-20.94551 c -0.0585,-0.31157 -0.13734,-0.53544 -0.17529,-0.49749 -0.0379,0.0379 -0.0212,0.32392 0.0372,0.6355 0.0585,0.31159 0.13732,0.53546 0.17527,0.4975 0.0379,-0.0379 0.0211,-0.32393 -0.0374,-0.63551 z m 114.27289,-1.81381 c 0.3102,-1.29171 0.54015,-2.46199 0.51103,-2.60057 -0.0291,-0.13855 -0.14252,0.20217 -0.25181,0.75721 -0.10928,0.55504 -0.36842,1.68557 -0.57567,2.51225 -0.39749,1.5857 -0.41498,1.67971 -0.31214,1.67971 0.0357,0 0.31842,-1.05686 0.62859,-2.3486 z"
     id="path7427"
     inkscape:connector-curvature="0"
     style="" />
  <path
     d="m 295.76796,478.1565 c 3.0093,-0.69689 6.14194,-1.7955 8.51056,-2.98466 0.58515,-0.29377 1.09895,-0.49909 1.14182,-0.45623 0.11394,0.11395 -2.60342,1.45037 -4.21314,2.07203 -1.55462,0.6004 -5.9246,1.75727 -6.57487,1.74058 -0.23248,-0.005 0.27855,-0.17323 1.13563,-0.37172 z"
     id="path7431"
     inkscape:connector-curvature="0"
     style="" />
  <path
     d="m 292.45625,499.18296 c -4.21052,-0.58178 -7.38597,-1.30846 -11.14855,-2.55121 -17.94944,-5.92859 -32.00243,-19.9301 -38.0419,-37.90251 -0.7542,-2.24434 -1.94806,-6.94129 -1.80203,-7.08966 0.0637,-0.0646 4.81795,-0.0995 10.56519,-0.0776 l 10.44949,0.04 0.52954,1.46471 c 0.29124,0.80558 0.50939,1.52509 0.4848,1.59889 -0.0248,0.0738 -0.39015,-0.56784 -0.81233,-1.42589 l -0.7676,-1.56008 -9.90387,0 c -9.33341,0 -9.90316,0.0156 -9.89161,0.2717 0.007,0.16224 0.0438,0.19355 0.0906,0.0775 0.0616,-0.15238 2.17152,-0.19406 9.81809,-0.19406 l 9.73981,0 1.26961,2.44529 c 3.94675,7.60161 5.38715,9.75003 8.87599,13.23887 2.02052,2.02053 3.52906,3.25336 6.00029,4.90365 4.72247,3.15373 10.45179,5.37566 16.43759,6.37484 2.45499,0.40978 9.79549,0.41122 12.26536,0.001 2.25618,-0.37347 4.90016,-1.03937 6.90899,-1.74007 5.91135,-2.06199 12.74603,-7.22472 17.81218,-13.45485 1.9774,-2.4317 3.24989,-4.52931 5.62455,-9.27165 l 1.24973,-2.49581 8.50011,-0.0414 8.5001,-0.0413 -8.54479,-0.0375 -8.54481,-0.0374 -0.84601,1.71465 c -0.46531,0.94305 -0.86361,1.65917 -0.88514,1.59138 -0.0215,-0.0678 0.23108,-0.85683 0.56133,-1.75345 l 0.60045,-1.63023 10.49852,-0.04 10.4985,-0.04 0,0.43704 c 0,0.67217 -1.47673,6.03701 -2.24472,8.15496 -3.68674,10.16696 -10.48442,19.64741 -18.95122,26.43052 -2.03781,1.63257 -5.86017,4.22095 -8.10429,5.488 -7.05851,3.98523 -16.4432,6.86855 -23.7979,7.31159 -4.07982,0.24576 -10.63754,0.16449 -12.99403,-0.16121 z m 9.41014,-0.20632 c -0.0357,-0.0312 -1.84627,-0.0868 -4.02375,-0.12367 -2.17749,-0.037 -3.47001,-0.0239 -2.87228,0.0291 1.19237,0.10573 6.99995,0.18529 6.89604,0.0946 z m -8.33215,-0.36363 c -0.19214,-0.037 -0.50653,-0.037 -0.69867,0 -0.19214,0.037 -0.035,0.0672 0.34934,0.0672 0.38427,0 0.54144,-0.0303 0.34933,-0.0672 z m 11.95484,0.007 c -0.10672,-0.043 -0.28141,-0.043 -0.38813,0 -0.10672,0.043 -0.0194,0.0784 0.19405,0.0784 0.21348,0 0.30082,-0.0353 0.19408,-0.0784 z m -13.27272,-0.15913 c -0.14841,-0.0389 -0.42791,-0.0403 -0.62105,-0.004 -0.19312,0.037 -0.0718,0.0688 0.26991,0.0705 0.34155,0.001 0.49956,-0.0287 0.35114,-0.0675 l 0,0 z m 14.74444,0.0123 c -0.0518,-0.0515 -0.1855,-0.057 -0.29758,-0.0123 -0.12385,0.0494 -0.087,0.0863 0.0937,0.0937 0.16363,0.007 0.25538,-0.0299 0.20378,-0.0817 l 0,0 z m -15.90774,-0.16329 c -0.10512,-0.0426 -0.31471,-0.0451 -0.46578,-0.005 -0.151,0.0392 -0.065,0.0742 0.19113,0.0773 0.25617,0.004 0.37977,-0.0291 0.27465,-0.0716 l 0,0 z m 17.23066,-9.3e-4 c -0.10671,-0.0431 -0.2814,-0.0431 -0.38816,0 -0.10671,0.043 -0.0194,0.0784 0.19409,0.0784 0.21348,0 0.30081,-0.0353 0.19407,-0.0784 z m 0.85069,-0.14616 c -0.0515,-0.0515 -0.1855,-0.057 -0.29758,-0.0123 -0.12385,0.0494 -0.0872,0.0863 0.0937,0.0937 0.16363,0.007 0.25535,-0.0299 0.20377,-0.0817 l 0,0 z m -20.02826,-0.15533 c -0.0518,-0.0515 -0.18552,-0.057 -0.29757,-0.0123 -0.12385,0.0494 -0.087,0.0864 0.0937,0.0937 0.16361,0.007 0.25536,-0.0299 0.20377,-0.0817 l 0,0 z m 21.11505,0 c -0.0515,-0.0515 -0.1855,-0.057 -0.29757,-0.0123 -0.12385,0.0494 -0.087,0.0864 0.0937,0.0937 0.16364,0.007 0.25538,-0.0299 0.20378,-0.0817 l 0,0 z m 1.0124,-0.16432 c -0.10669,-0.0431 -0.2814,-0.0431 -0.38812,0 -0.10672,0.0431 -0.0194,0.0784 0.19407,0.0784 0.21348,0 0.30081,-0.0353 0.19405,-0.0784 z m 0.69543,-0.14633 c -0.0515,-0.0515 -0.18549,-0.057 -0.29757,-0.0123 -0.12385,0.0494 -0.0872,0.0865 0.0937,0.0937 0.16364,0.007 0.25536,-0.0299 0.20378,-0.0817 l 0,0 z m 1.55259,-0.31051 c -0.0515,-0.0515 -0.18551,-0.057 -0.29759,-0.0123 -0.12385,0.0494 -0.0872,0.0863 0.0937,0.0937 0.16364,0.007 0.25538,-0.0299 0.20378,-0.0817 l 0,-2e-5 z m 0.7763,-0.15533 c -0.0518,-0.0518 -0.1855,-0.057 -0.29758,-0.0123 -0.12385,0.0494 -0.087,0.0864 0.0937,0.0937 0.16363,0.007 0.25536,-0.0299 0.20377,-0.0817 l 0,0 z m 0.62102,-0.15533 c -0.0518,-0.0515 -0.1855,-0.057 -0.29758,-0.0123 -0.12383,0.0494 -0.087,0.0864 0.0937,0.0937 0.16363,0.007 0.25535,-0.0299 0.20377,-0.0817 l 0,-1e-5 z m 0.62103,-0.15533 c -0.0515,-0.0518 -0.18549,-0.057 -0.29758,-0.0123 -0.12384,0.0494 -0.087,0.0863 0.0937,0.0937 0.16363,0.007 0.25535,-0.0299 0.20377,-0.0817 l 0,0 z m 0.62103,-0.15533 c -0.0515,-0.0515 -0.1855,-0.0573 -0.29758,-0.0123 -0.12384,0.0494 -0.087,0.0864 0.0937,0.0937 0.16362,0.007 0.25535,-0.0299 0.20378,-0.0817 l 0,-2e-5 z m 0.89598,-0.21675 c 0.19571,-0.0843 0.22442,-0.13336 0.0775,-0.13336 -0.12799,0 -0.37261,0.06 -0.54339,0.13336 -0.19572,0.084 -0.22442,0.13335 -0.0775,0.13335 0.12799,0 0.37261,-0.06 0.5434,-0.13335 z m -34.92116,-0.39861 c -0.59125,-0.20651 -1.10213,-0.34833 -1.13534,-0.31514 -0.0784,0.0784 1.67227,0.68901 1.97742,0.68993 0.128,3.1e-4 -0.25085,-0.16831 -0.84208,-0.37479 z m 36.00794,0.0881 c 0.19573,-0.084 0.22443,-0.13336 0.0776,-0.13336 -0.12817,0 -0.37262,0.0602 -0.54339,0.13336 -0.19572,0.0843 -0.22443,0.13336 -0.0776,0.13336 0.12816,0 0.37262,-0.06 0.54339,-0.13336 z m 1.8336,-0.55942 c 0.6675,-0.2223 1.18659,-0.43123 1.15352,-0.46429 -0.033,-0.033 -0.64881,0.14356 -1.36835,0.3925 -0.71953,0.24891 -1.23862,0.45784 -1.15351,0.46428 0.0851,0.005 0.70085,-0.17021 1.36834,-0.39249 z m -39.17308,0.0307 c 0,-0.0941 -1.44014,-0.56691 -1.51097,-0.49608 -0.0336,0.0336 0.24029,0.1676 0.60853,0.2978 0.72578,0.25668 0.90244,0.2955 0.90244,0.19828 z m -1.72077,-0.62011 c -0.1337,-0.12833 -2.06015,-0.86645 -2.11591,-0.81067 -0.032,0.032 0.38144,0.2381 0.91886,0.45794 0.90631,0.37076 1.35288,0.50236 1.19705,0.35273 z m 43.79711,-0.47356 c 1.70368,-0.65798 4.21814,-1.81728 4.13085,-1.90456 -0.0353,-0.0353 -0.47303,0.14115 -0.97267,0.39209 -0.49964,0.25096 -1.74683,0.78881 -2.77153,1.19518 -1.02468,0.40638 -1.8922,0.76455 -1.92778,0.79593 -0.16864,0.14875 0.26727,0.0139 1.54113,-0.47864 z m -46.42355,-0.62875 c -0.21348,-0.12216 -0.45803,-0.22188 -0.5434,-0.22188 -0.0852,0 0.0194,0.0998 0.23289,0.22188 0.21348,0.12216 0.45801,0.22189 0.54338,0.22189 0.0855,0 -0.0194,-0.1 -0.23287,-0.22189 z m -0.78924,-0.28701 c -0.20423,-0.17089 -5.6098,-2.86715 -5.47217,-2.7295 0.20099,0.20097 5.192,2.7719 5.39454,2.77878 0.0784,0.001 0.11334,-0.0195 0.0776,-0.0493 z m 53.73213,-2.20158 c 0,-0.0427 -0.4192,0.13404 -0.93154,0.39262 -0.51236,0.25862 -0.93156,0.50515 -0.93156,0.54786 0,0.0427 0.41921,-0.13405 0.93156,-0.39262 0.51235,-0.25862 0.93154,-0.50516 0.93154,-0.54786 z m 0.77629,-0.47225 c 0,-0.0427 -0.13977,-0.001 -0.31052,0.0886 -0.17071,0.0915 -0.31052,0.2011 -0.31052,0.24381 0,0.0427 0.13977,10e-4 0.31052,-0.0885 0.17072,-0.0915 0.31052,-0.20112 0.31052,-0.24382 z m 0.77629,-0.46576 c 0,-0.0427 -0.13977,-0.001 -0.31052,0.0886 -0.17073,0.0915 -0.31051,0.20112 -0.31051,0.24381 0,0.0427 0.13976,10e-4 0.31051,-0.0886 0.17072,-0.0915 0.31052,-0.20113 0.31052,-0.24381 z m -61.24918,-0.005 c -0.3977,-0.3065 -0.85393,-0.55771 -0.85393,-0.47015 0,0.0789 0.97157,0.71525 1.0868,0.71182 0.0427,-10e-4 -0.0621,-0.11002 -0.23288,-0.24167 z m -1.00917,-0.58272 c 0,-0.0307 -0.38428,-0.31078 -0.85392,-0.62263 -0.46965,-0.31182 -0.85391,-0.53317 -0.85391,-0.49187 0,0.0679 1.57009,1.17014 1.66693,1.17014 0.0225,0 0.0409,-0.025 0.0409,-0.0557 z m 64.60699,-0.99234 c 0.19313,-0.24626 0.18764,-0.25175 -0.0586,-0.0586 -0.14945,0.11713 -0.2717,0.23945 -0.2717,0.27171 0,0.12783 0.12747,0.0455 0.33031,-0.2131 z m -66.47009,-0.2529 c 0,-0.0324 -0.52401,-0.4532 -1.16443,-0.93525 -0.64044,-0.48202 -1.16444,-0.84215 -1.16444,-0.80025 0,0.0678 2.19421,1.78431 2.29005,1.79144 0.0212,0.001 0.0389,-0.0236 0.0389,-0.0561 z m 67.09113,-0.21288 c 0.19311,-0.24625 0.18764,-0.25174 -0.0586,-0.0586 -0.14944,0.11726 -0.2717,0.23943 -0.2717,0.27168 0,0.12783 0.12748,0.0455 0.33033,-0.21308 z m 0.62104,-0.46577 c 0.19313,-0.24626 0.18762,-0.25174 -0.0586,-0.0586 -0.14944,0.11713 -0.27169,0.23945 -0.27169,0.2717 0,0.12783 0.12748,0.0455 0.33032,-0.21309 z m 0.67885,-0.50461 c 0.15464,-0.17072 0.24609,-0.31051 0.2034,-0.31051 -0.0427,0 -0.20411,0.13977 -0.35865,0.31051 -0.15463,0.17073 -0.24608,0.31054 -0.2034,0.31054 0.0427,0 0.20408,-0.13976 0.35865,-0.31054 z m 0.85393,-0.69865 c 0.20056,-0.21346 0.3297,-0.38813 0.28701,-0.38813 -0.0427,0 -0.24171,0.17467 -0.44227,0.38813 -0.20056,0.21347 -0.32972,0.38814 -0.28701,0.38814 0.0427,0 0.24171,-0.17467 0.44227,-0.38814 z m -71.72908,0.024 c 0,-0.0294 -0.15724,-0.18666 -0.34934,-0.34932 l -0.34931,-0.29578 0.29575,0.34933 c 0.27796,0.32829 0.4029,0.42003 0.4029,0.29577 z m 74.67897,-2.6518 c 2.78876,-2.59071 7.20839,-7.57269 9.13506,-10.29747 0.78499,-1.11012 0.15637,-0.40045 -1.2103,1.3665 -2.21882,2.86861 -4.48905,5.38769 -7.61841,8.45355 -2.8937,2.83499 -2.96684,2.94898 -0.30635,0.47742 z m -75.45526,2.03076 c 0,-0.0294 -0.15723,-0.18665 -0.34933,-0.34931 l -0.34932,-0.29577 0.29575,0.34932 c 0.27795,0.3283 0.4029,0.42002 0.4029,0.29576 z m -1.24206,-1.08679 c 0,-0.0294 -0.15723,-0.18666 -0.34933,-0.34933 l -0.34934,-0.29577 0.29578,0.34933 c 0.27793,0.32828 0.40289,0.42 0.40289,0.29577 z m -1.86309,-1.70144 c 0,-0.0259 -0.26198,-0.28794 -0.58223,-0.58221 l -0.5822,-0.53507 0.53504,0.58224 c 0.49802,0.54191 0.62939,0.65359 0.62939,0.53504 z m -4.81298,-4.97166 c 0,-0.0278 -0.19213,-0.21993 -0.42696,-0.42693 l -0.42695,-0.3764 0.3764,0.42696 c 0.35178,0.39905 0.47751,0.49815 0.47751,0.37637 z m -0.93156,-1.08679 c 0,-0.0278 -0.19212,-0.21994 -0.42695,-0.42696 l -0.42697,-0.3764 0.3764,0.42696 c 0.35181,0.39908 0.47751,0.49817 0.47751,0.3764 z m -1.97131,-2.39474 c -0.65313,-0.83257 -1.87657,-2.55841 -2.71875,-3.83519 -1.53772,-2.33127 -2.04453,-3.02648 -1.36358,-1.87053 1.17588,1.99614 4.93548,7.21949 5.19636,7.21949 0.0403,0 -0.46091,-0.68121 -1.11404,-1.51377 z m 96.88369,-3.1828 c 1.46129,-2.10575 3.17489,-5.01593 4.43264,-7.52791 0.6087,-1.2157 1.10491,-2.26369 1.10268,-2.32885 -10e-4,-0.0652 -0.65204,1.13907 -1.44402,2.6761 -1.48604,2.88408 -2.93399,5.32158 -4.40394,7.41357 -0.46499,0.66177 -0.80913,1.20324 -0.76473,1.20324 0.0444,0 0.52923,-0.64626 1.07737,-1.43615 z m -101.51082,-3.68735 c -0.13249,-0.25617 -0.27579,-0.46579 -0.31849,-0.46579 -0.0427,0 0.0308,0.20962 0.16328,0.46579 0.13249,0.25616 0.2758,0.46577 0.31849,0.46577 0.0427,0 -0.0308,-0.20961 -0.16328,-0.46577 z m -0.77629,-1.39733 c -0.21637,-0.42694 -0.4283,-0.77627 -0.471,-0.77627 -0.0427,0 0.0995,0.34933 0.31575,0.77627 0.21636,0.42697 0.4283,0.7763 0.47101,0.7763 0.0427,0 -0.0995,-0.34933 -0.31576,-0.7763 z m -0.80035,-1.48163 c -0.0505,-0.13179 -0.12523,-0.20629 -0.16588,-0.16552 -0.0408,0.0408 -0.028,0.14857 0.0282,0.23958 0.15307,0.2477 0.24257,0.19958 0.1375,-0.0741 z m -1.04437,-2.19202 c -0.13128,-0.24236 -0.24161,-0.39154 -0.24504,-0.33153 -0.01,0.18455 0.35069,0.90539 0.41929,0.83679 0.0356,-0.0356 -0.0429,-0.26288 -0.17425,-0.50526 z m -0.46579,-1.08679 c -0.13127,-0.24237 -0.2416,-0.39157 -0.24502,-0.33156 -0.01,0.18457 0.35069,0.90542 0.41929,0.83679 0.0356,-0.0356 -0.0429,-0.26286 -0.17427,-0.50523 z m 110.59176,-1.0617 c 0,-0.0855 -0.0998,0.0194 -0.22189,0.23288 -0.12192,0.21348 -0.22187,0.45801 -0.22187,0.54341 0,0.0852 0.0998,-0.0194 0.22187,-0.23289 0.12216,-0.21349 0.22189,-0.45804 0.22189,-0.54339 z m -111.01551,-0.0604 c -0.0957,-0.2744 -0.20108,-0.4717 -0.23429,-0.43851 -0.0332,0.0332 0.0178,0.28487 0.11346,0.55926 0.0957,0.27438 0.20108,0.4717 0.23428,0.43849 0.0332,-0.0332 -0.0178,-0.28488 -0.11345,-0.55924 z m 111.33229,-0.71592 c 0,-0.0852 -0.0678,-0.0505 -0.15049,0.0775 -0.0827,0.12817 -0.15048,0.30276 -0.15048,0.38816 0,0.0855 0.0678,0.0505 0.15048,-0.0776 0.0827,-0.12799 0.15049,-0.30274 0.15049,-0.38813 z m -111.92521,-0.86637 c -0.16432,-0.46281 -0.30379,-0.76656 -0.31004,-0.67506 -0.0156,0.23447 0.47661,1.64863 0.54905,1.57622 0.0329,-0.0329 -0.0747,-0.43834 -0.23901,-0.90116 z M 356.58689,458.2 c 0.0764,-0.31174 0.0535,-0.29644 -0.11689,0.0775 -0.11676,0.25617 -0.25493,0.64043 -0.30731,0.85391 -0.0764,0.31175 -0.0535,0.29646 0.11689,-0.0775 0.11677,-0.25617 0.25494,-0.64043 0.30731,-0.85391 z m 0.67025,-2.51323 c -0.0494,-0.12386 -0.0865,-0.0872 -0.0937,0.0937 -0.007,0.16364 0.0299,0.25538 0.0817,0.20379 0.0515,-0.0518 0.0573,-0.1855 0.0123,-0.29757 l 2e-5,0 z m 0.32875,-1.29059 c 0,-0.24587 -0.0258,-0.22972 -0.12436,0.0775 -0.0683,0.2135 -0.12437,0.52789 -0.12437,0.69868 0,0.24587 0.026,0.2297 0.12437,-0.0776 0.0684,-0.21348 0.12436,-0.52789 0.12436,-0.69866 z m -114.75367,0.35904 c -0.0494,-0.12385 -0.0863,-0.087 -0.0937,0.0937 -0.007,0.16363 0.0299,0.25537 0.0817,0.20378 0.0518,-0.0515 0.0573,-0.18549 0.0123,-0.29756 z m -0.15845,-0.786 c -0.043,-0.1067 -0.0784,-0.0194 -0.0784,0.19408 0,0.21348 0.0353,0.30081 0.0784,0.19407 0.0431,-0.10671 0.0431,-0.2814 0,-0.38815 z m 115.22269,-0.97037 c 0,-0.24586 -0.0258,-0.22969 -0.12437,0.0776 -0.0684,0.21348 -0.12435,0.52789 -0.12435,0.69866 0,0.24587 0.0258,0.22972 0.12435,-0.0775 0.0683,-0.21349 0.12437,-0.52786 0.12437,-0.69867 z m -115.37794,0.1941 c -0.043,-0.10671 -0.0784,-0.0194 -0.0784,0.19406 0,0.21348 0.0353,0.30081 0.0784,0.19408 0.043,-0.10671 0.043,-0.28141 0,-0.38814 z m -0.15533,-0.77631 c -0.0431,-0.10671 -0.0784,-0.0194 -0.0784,0.19408 0,0.21348 0.0353,0.30083 0.0784,0.19408 0.043,-0.10671 0.043,-0.28142 0,-0.38816 z m 115.67024,-0.14547 c -0.0494,-0.12384 -0.0864,-0.0872 -0.0937,0.0937 -0.007,0.16362 0.0299,0.25536 0.0817,0.20376 0.0515,-0.0515 0.057,-0.1855 0.0123,-0.29757 l 0,0 z"
     id="path7433"
     inkscape:connector-curvature="0"
     style="" />
  <path
     d="m 293.41759,499.32363 c -12.19542,-1.52555 -22.73291,-6.06594 -31.98307,-13.78082 -1.78528,-1.48898 -5.57257,-5.27387 -7.08582,-7.08135 -4.89871,-5.85124 -8.71791,-12.6492 -11.10513,-19.76658 -0.72684,-2.16702 -1.92334,-6.90963 -1.77998,-7.0553 0.0636,-0.0646 4.81999,-0.0995 10.5697,-0.0776 l 10.45403,0.04 0.52674,1.45951 c 0.28969,0.80274 0.50582,1.52225 0.48025,1.59891 -0.0256,0.0767 -0.39186,-0.56266 -0.81403,-1.42071 l -0.7676,-1.56008 -9.78743,0.0375 -9.78742,0.0377 9.72233,0.0412 9.72232,0.0412 1.55898,2.9906 c 3.70495,7.10733 5.13661,9.2244 8.5466,12.63844 5.56899,5.57557 12.69257,9.3547 20.68207,10.97204 2.84805,0.57654 5.61989,0.77857 9.30901,0.67852 3.19363,-0.0867 6.59467,-0.48778 6.42758,-0.75814 -0.0509,-0.0823 0.0908,-0.0975 0.3363,-0.0359 0.3188,0.0801 0.39441,0.0581 0.30407,-0.0881 -0.0876,-0.14148 -0.0332,-0.16691 0.19897,-0.0932 0.60008,0.19046 5.35324,-1.23339 4.98347,-1.49284 -0.15792,-0.11088 -0.10745,-0.12903 0.18376,-0.0661 0.91491,0.19771 6.2894,-2.93261 9.61247,-5.59864 1.82735,-1.46608 5.21949,-4.79076 6.78565,-6.65079 2.33355,-2.77134 3.88501,-5.28211 6.54665,-10.59451 l 0.95199,-1.90012 6.09356,-0.0426 6.09359,-0.0426 -6.13832,-0.037 -6.13831,-0.0371 -0.84601,1.71465 c -0.4653,0.94305 -0.86572,1.65556 -0.8898,1.58333 -0.024,-0.0721 0.22625,-0.86129 0.55628,-1.75346 l 0.60003,-1.62214 10.50358,-0.04 10.50357,-0.04 -7.8e-4,0.42803 c -10e-4,0.59156 -1.12634,4.85382 -1.86994,7.08273 -1.26394,3.78877 -3.17995,7.87533 -5.45656,11.63794 -7.52547,12.43765 -18.79261,21.42643 -32.57395,25.98707 -4.25213,1.40716 -9.26531,2.44017 -13.04164,2.68729 -2.74473,0.17963 -10.69197,0.16554 -12.18775,-0.0215 z m 6.55964,-0.40593 c -0.66178,-0.0291 -1.74471,-0.0291 -2.40649,0 -0.66179,0.0291 -0.12032,0.053 1.20326,0.053 1.32355,0 1.86502,-0.0239 1.20323,-0.053 z m -4.66097,-0.13371 c -0.0515,-0.0515 -0.18549,-0.057 -0.29757,-0.0123 -0.12384,0.0494 -0.087,0.0863 0.0937,0.0937 0.16363,0.007 0.25538,-0.0299 0.20377,-0.0817 l 0,0 z m -1.93747,-0.16433 c -0.10671,-0.043 -0.28141,-0.043 -0.38815,0 -0.10671,0.043 -0.0194,0.0784 0.19407,0.0784 0.21348,0 0.30081,-0.0353 0.19408,-0.0784 z m -1.32295,-0.14615 c -0.0515,-0.0515 -0.18548,-0.057 -0.29755,-0.0123 -0.12385,0.0494 -0.0872,0.0863 0.0937,0.0937 0.16364,0.007 0.25538,-0.0299 0.20378,-0.0817 l 0,0 z m -1.08678,-0.15533 c -0.0518,-0.0515 -0.1855,-0.057 -0.29759,-0.0123 -0.12385,0.0494 -0.0872,0.0863 0.0937,0.0937 0.16362,0.007 0.25538,-0.0299 0.20378,-0.0817 l 0,0 z m 27.0569,-2.0798 c 0.12799,-0.0827 0.16294,-0.15049 0.0775,-0.15049 -0.0852,0 -0.26004,0.0678 -0.38812,0.15049 -0.12816,0.0827 -0.16294,0.15048 -0.0776,0.15048 0.0852,0 0.26006,-0.0678 0.38816,-0.15048 z m -36.17505,-0.15533 c -0.12818,-0.0827 -0.30277,-0.15047 -0.38817,-0.15047 -0.0855,0 -0.0505,0.0676 0.0776,0.15047 0.12802,0.0827 0.30275,0.15048 0.38815,0.15048 0.0853,0 0.0505,-0.0676 -0.0775,-0.15048 z m -1.70786,-0.62102 c -0.12799,-0.0827 -0.30274,-0.15048 -0.38812,-0.15048 -0.0855,0 -0.0505,0.0678 0.0775,0.15048 0.12801,0.0827 0.30278,0.15048 0.38815,0.15048 0.0853,0 0.0505,-0.0678 -0.0775,-0.15048 z m 40.36703,0 c 0.28382,-0.18342 0.0388,-0.18342 -0.38815,0 -0.20474,0.0881 -0.23119,0.13629 -0.0775,0.14201 0.12799,0.005 0.33769,-0.0591 0.46578,-0.14201 z M 278.901,494.99625 c -0.128,-0.0827 -0.30273,-0.15048 -0.38815,-0.15048 -0.0852,0 -0.0505,0.0678 0.0775,0.15048 0.12817,0.0827 0.30277,0.15049 0.38815,0.15049 0.0852,0 0.0505,-0.0678 -0.0775,-0.15049 z m 43.31691,-0.15533 c 0.12816,-0.0827 0.16294,-0.15048 0.0776,-0.15048 -0.0855,0 -0.26006,0.0676 -0.38817,0.15048 -0.12801,0.0827 -0.16295,0.15049 -0.0775,0.15049 0.0855,0 0.26007,-0.0676 0.38813,-0.15049 z m -44.0932,-0.15531 c -0.128,-0.0827 -0.30274,-0.15049 -0.38813,-0.15049 -0.0855,0 -0.0505,0.0678 0.0775,0.15049 0.12801,0.0827 0.30275,0.15047 0.38815,0.15047 0.0855,0 0.0505,-0.0678 -0.0775,-0.15047 z m 44.8695,-0.15533 c 0.128,-0.0827 0.16294,-0.15048 0.0775,-0.15048 -0.0855,0 -0.26006,0.0676 -0.38815,0.15048 -0.12816,0.0827 -0.16293,0.15048 -0.0776,0.15048 0.0852,0 0.26006,-0.0678 0.38816,-0.15048 z m 0.77628,-0.31052 c 0.12801,-0.0827 0.16294,-0.15049 0.0775,-0.15049 -0.0852,0 -0.26005,0.0678 -0.38815,0.15049 -0.12799,0.0827 -0.16293,0.15048 -0.0775,0.15048 0.0853,0 0.26007,-0.0678 0.38815,-0.15048 z m -47.3536,-0.23288 c -0.2135,-0.12217 -0.45803,-0.22189 -0.5434,-0.22189 -0.0852,0 0.0194,0.0998 0.23289,0.22189 0.21347,0.12216 0.45801,0.22188 0.54338,0.22188 0.0855,0 -0.0194,-0.0998 -0.23287,-0.22188 z m 48.12989,-0.0776 c 0.12799,-0.0827 0.16312,-0.15049 0.0775,-0.15049 -0.0852,0 -0.26006,0.0678 -0.38815,0.15049 -0.128,0.0827 -0.16311,0.15048 -0.0776,0.15048 0.0855,0 0.26005,-0.0678 0.38815,-0.15048 z m -50.14826,-0.85392 c -0.55504,-0.29059 -1.07902,-0.52833 -1.16442,-0.52833 -0.0855,0 0.29888,0.23774 0.85391,0.52833 0.55506,0.29059 1.07905,0.52836 1.16445,0.52836 0.0853,0 -0.29888,-0.23777 -0.85394,-0.52836 z m 51.70084,0.15533 c 0.21347,-0.12216 0.31827,-0.22187 0.23288,-0.22187 -0.0852,0 -0.32993,0.0998 -0.54341,0.22187 -0.21348,0.12216 -0.31826,0.22188 -0.23288,0.22188 0.0852,0 0.32993,-0.1 0.54341,-0.22188 z m -53.40867,-0.92893 c 0,-0.0413 -0.34933,-0.25202 -0.77628,-0.46839 -0.42697,-0.21635 -0.77629,-0.3586 -0.77629,-0.31611 0,0.0426 0.33186,0.25002 0.73748,0.46116 0.82908,0.43158 0.81509,0.42605 0.81509,0.32334 z m 56.35857,-0.63162 c 0,-0.0427 -0.20961,0.0308 -0.46579,0.16329 -0.25617,0.13249 -0.46576,0.2758 -0.46576,0.31848 0,0.0427 0.20959,-0.0308 0.46576,-0.16328 0.25618,-0.13249 0.46579,-0.2758 0.46579,-0.31849 z m -59.15322,-0.9181 c 0,-0.0396 -0.15723,-0.14841 -0.3493,-0.24145 -0.33546,-0.16259 -0.33736,-0.15965 -0.0481,0.0721 0.31678,0.25378 0.39729,0.28808 0.39729,0.16933 z m 66.15961,-3.92573 c 0.19312,-0.24624 0.18764,-0.25174 -0.0586,-0.0586 -0.14944,0.11713 -0.2717,0.23946 -0.2717,0.27168 0,0.12783 0.12749,0.0455 0.33031,-0.21308 z m 3.16298,-2.83346 c 0.59316,-0.59774 1.04355,-1.0868 1.00084,-1.0868 -0.0427,0 -0.56294,0.48906 -1.1561,1.0868 -0.59316,0.59775 -1.04353,1.08682 -1.00085,1.08682 0.0427,0 0.56293,-0.48907 1.15611,-1.08682 z m 2.56174,-2.56174 c 0.72206,-0.72582 1.27792,-1.31968 1.23521,-1.31968 -0.0427,0 -0.6684,0.59385 -1.39046,1.31968 -0.72206,0.72582 -1.27789,1.31969 -1.23519,1.31969 0.0427,0 0.66839,-0.59387 1.39044,-1.31969 z m 2.01837,-2.17362 c 0.28967,-0.29886 0.49175,-0.54338 0.44904,-0.54338 -0.0427,0 -0.31463,0.24452 -0.60431,0.54338 -0.28967,0.29887 -0.49176,0.54342 -0.44905,0.54342 0.0427,0 0.31463,-0.24455 0.60432,-0.54342 z m 1.08678,-1.24205 c 0.20058,-0.21348 0.32973,-0.38815 0.28702,-0.38815 -0.0427,0 -0.24171,0.17467 -0.44226,0.38815 -0.20055,0.21348 -0.32971,0.38813 -0.28702,0.38813 0.0427,0 0.24172,-0.17465 0.44226,-0.38813 z m 0.7763,-0.93155 c 0.20056,-0.21347 0.3297,-0.38814 0.28701,-0.38814 -0.0427,0 -0.2417,0.17467 -0.44227,0.38814 -0.20055,0.21348 -0.3297,0.38814 -0.28701,0.38814 0.0427,0 0.24172,-0.17466 0.44227,-0.38814 z m -91.13627,0.17427 c 0,-0.0324 -0.12229,-0.15447 -0.27172,-0.2717 -0.24624,-0.19312 -0.25173,-0.18762 -0.0586,0.0586 0.20283,0.25862 0.33031,0.34088 0.33031,0.21308 z m 91.83493,-1.02818 c 0.15464,-0.17072 0.24609,-0.31052 0.20338,-0.31052 -0.0427,0 -0.20409,0.13976 -0.35864,0.31052 -0.15463,0.17071 -0.24608,0.31051 -0.20339,0.31051 0.0427,0 0.20411,-0.13976 0.35865,-0.31051 z m -92.61123,0.0967 c 0,-0.0324 -0.12229,-0.15447 -0.2717,-0.2717 -0.24624,-0.19312 -0.25174,-0.18764 -0.0586,0.0586 0.20283,0.25861 0.33033,0.34086 0.33033,0.21307 z m 93.17444,-0.83412 c 0.19312,-0.24625 0.18764,-0.25173 -0.0586,-0.0586 -0.25862,0.20282 -0.34086,0.33029 -0.21308,0.33029 0.0324,0 0.15447,-0.12229 0.2717,-0.27168 z m -93.79547,0.058 c 0,-0.0324 -0.12229,-0.15447 -0.27171,-0.2717 -0.24625,-0.19312 -0.25173,-0.18763 -0.0586,0.0586 0.20282,0.25863 0.33031,0.34088 0.33031,0.21309 z m 94.55529,-1.03288 c 0.46864,-0.65812 0.27301,-0.57152 -0.24596,0.10892 -0.23911,0.31349 -0.35545,0.52096 -0.25854,0.46106 0.097,-0.0599 0.32394,-0.31638 0.5045,-0.56997 z m -95.02106,0.41185 c 0,-0.0324 -0.12228,-0.15446 -0.2717,-0.27171 -0.24624,-0.19311 -0.25175,-0.18762 -0.0586,0.0586 0.20283,0.25862 0.33031,0.34087 0.33031,0.21308 z m -0.46577,-0.62104 c 0,-0.0324 -0.12229,-0.15445 -0.27171,-0.2717 -0.24625,-0.19312 -0.25173,-0.18761 -0.0586,0.0586 0.20282,0.25863 0.33032,0.34087 0.33032,0.21309 z m -0.46577,-0.62103 c 0,-0.0324 -0.12229,-0.15445 -0.2717,-0.27169 -0.24624,-0.19313 -0.25175,-0.18762 -0.0586,0.0586 0.20282,0.25863 0.33031,0.34088 0.33031,0.21309 z m 97.36638,-1.14461 c 0.19314,-0.24624 0.18763,-0.25175 -0.0586,-0.0586 -0.14946,0.11713 -0.27171,0.23946 -0.27171,0.2717 0,0.12782 0.12748,0.0455 0.33032,-0.21309 z m -98.45319,-0.34933 c -0.18241,-0.25619 -0.36659,-0.46578 -0.40929,-0.46578 -0.0427,0 0.0716,0.20959 0.25402,0.46578 0.18241,0.25618 0.3666,0.46576 0.4093,0.46576 0.0427,0 -0.0716,-0.20958 -0.25403,-0.46576 z m -0.70648,-1.05825 c -0.14201,-0.24046 -0.39882,-0.60725 -0.57061,-0.8151 l -0.31234,-0.3779 0.25131,0.42697 c 0.44156,0.75015 0.75084,1.20325 0.82136,1.20325 0.0378,0 -0.0477,-0.19675 -0.18972,-0.43722 z m 101.15822,-1.58112 c 0.0915,-0.17072 0.13129,-0.31053 0.0886,-0.31053 -0.0427,0 -0.15239,0.13977 -0.24383,0.31053 -0.0915,0.17072 -0.13127,0.31051 -0.0885,0.31051 0.0427,0 0.15238,-0.13977 0.24381,-0.31051 z m 0.46578,-0.77631 c 0.0915,-0.17073 0.13129,-0.31051 0.0885,-0.31051 -0.0427,0 -0.15238,0.13976 -0.2438,0.31051 -0.0915,0.17072 -0.13127,0.31052 -0.0885,0.31052 0.0427,0 0.15238,-0.13977 0.24381,-0.31052 z m -103.5569,-0.77629 c -0.0915,-0.17071 -0.20112,-0.31051 -0.2438,-0.31051 -0.0427,0 -0.001,0.13976 0.0886,0.31051 0.0915,0.17072 0.20111,0.31052 0.24382,0.31052 0.0427,0 10e-4,-0.13976 -0.0886,-0.31052 z m 104.02266,0 c 0.0915,-0.17071 0.13129,-0.31051 0.0886,-0.31051 -0.0427,0 -0.15239,0.13976 -0.24384,0.31051 -0.0915,0.17072 -0.13129,0.31052 -0.0885,0.31052 0.0427,0 0.15238,-0.13976 0.24379,-0.31052 z m 0.54341,-0.93154 c 0.13249,-0.25618 0.20593,-0.46577 0.16328,-0.46577 -0.0427,0 -0.18601,0.20959 -0.31849,0.46577 -0.13249,0.25618 -0.20592,0.46577 -0.16328,0.46577 0.0427,0 0.18601,-0.20959 0.31849,-0.46577 z m -105.1871,-0.15532 c -0.0915,-0.17072 -0.20112,-0.31052 -0.24383,-0.31052 -0.0427,0 -0.001,0.13976 0.0886,0.31052 0.0915,0.17071 0.20113,0.31051 0.24381,0.31051 0.0427,0 0.001,-0.13976 -0.0886,-0.31051 z m 106.04104,-1.39734 c 0.17424,-0.34154 0.28188,-0.62102 0.23919,-0.62102 -0.0427,0 -0.22021,0.27948 -0.39447,0.62102 -0.17426,0.34159 -0.2819,0.62105 -0.2392,0.62105 0.0427,0 0.22021,-0.27946 0.39448,-0.62105 z m 1.3863,-2.87226 c 0,-0.0852 -0.0998,0.0194 -0.22188,0.23289 -0.12216,0.21348 -0.22188,0.45802 -0.22188,0.5434 0,0.0855 0.0998,-0.0194 0.22188,-0.23288 0.12216,-0.21348 0.22188,-0.45801 0.22188,-0.54341 z m -109.42674,0.28336 c -0.18303,-0.31476 -0.22722,-0.21401 -0.0773,0.17641 0.0532,0.13872 0.12956,0.21959 0.16951,0.17962 0.04,-0.04 -10e-4,-0.2002 -0.0922,-0.35603 z m 110.02878,-1.68477 c -0.0477,-0.0477 -0.13457,0.0384 -0.19292,0.19147 -0.0843,0.22127 -0.0663,0.23912 0.0868,0.0868 0.10597,-0.10536 0.15377,-0.2306 0.10597,-0.2784 z m 0.49101,-1.0827 c 0,-0.0852 -0.0678,-0.0505 -0.15048,0.0775 -0.0827,0.128 -0.15049,0.30274 -0.15049,0.38813 0,0.0855 0.0678,0.0505 0.15049,-0.0775 0.0827,-0.12818 0.15048,-0.30277 0.15048,-0.38815 z"
     id="path7435"
     inkscape:connector-curvature="0"
     style="" />
  <path
     d="m 260.25401,439.95753 0,-10.4799 39.74597,0 39.746,0 0,10.4799 0,10.47991 -39.746,0 -39.74597,0 0,-10.47991 z"
     id="path7439"
     inkscape:connector-curvature="0"
     style="" />
  <path
     d="m 297.12772,450.98084 0,-0.38816 2.48411,0 2.48414,0 0,-10.63515 0,-10.63513 -2.48414,0 -2.48411,0 0,-0.46579 0,-0.46578 2.87226,0 2.87228,0 0,11.48909 0,11.48906 -2.87228,0 -2.87226,0 0,-0.38814 z"
     id="path7441"
     inkscape:connector-curvature="0"
     style="" />
  <path
     d="m 334.38957,450.98468 0,-0.3843 2.52294,-0.0469 c 1.38763,-0.0258 -15.38022,-0.0624 -37.26186,-0.0814 l -39.78479,-0.0346 0,-10.4799 0,-10.47988 39.78479,-0.0347 c 21.88164,-0.0193 38.64949,-0.0557 37.26186,-0.0814 l -2.52294,-0.0469 0,-0.4619 0,-0.46193 2.87227,0 2.87228,0 0,11.48906 0,11.48908 -2.87228,0 -2.87227,0 0,-0.38432 z"
     id="path7443"
     inkscape:connector-curvature="0"
     style="" />
  <text
     id="text3169-7"
     x="299.40103"
     y="446.92886"
     font-size="32px"
     style="font-style:normal;font-variant:normal;font-weight:500;font-stretch:normal;font-size:20px;line-height:125%;font-family:Ubuntu;-inkscape-font-specification:'Ubuntu, Medium';text-align:center;writing-mode:lr;text-anchor:middle;fill:#ffffff;"
     sodipodi:linespacing="125%">
    <tspan
       sodipodi:role="line"
       id="tspan7460"
       x="299.40103"
       y="446.92886">Hendon Central</tspan>
  </text>
  <text
     id="text3171-9"
     x="328.03571"
     y="609.10876"
     font-size="24px"
     style="font-style:normal;font-variant:normal;font-weight:normal;font-stretch:normal;font-size:26.25px;line-height:125%;font-family:Ubuntu;-inkscape-font-specification:'Ubuntu, Normal';text-align:start;writing-mode:lr-tb;text-anchor:start"
     sodipodi:linespacing="125%">BUS0</text>
  <text
     id="text3171-9-7"
     x="328.03571"
     y="649.10876"
     font-size="24px"
     style="font-style:normal;font-variant:normal;font-weight:normal;font-stretch:normal;font-size:26.25px;line-height:125%;font-family:Ubuntu;-inkscape-font-specification:'Ubuntu, Normal';text-align:start;writing-mode:lr-tb;text-anchor:start"
     sodipodi:linespacing="125%">BUS1</text>
  <text
     id="text3171-9-7-9"
     x="414.61914"
     y="550.72266"
     font-size="32px"
     style="font-style:normal;font-variant:normal;font-weight:500;font-stretch:normal;font-size:30px;line-height:125%;font-family:Ubuntu;-inkscape-font-specification:'Ubuntu, Medium';text-align:center;writing-mode:lr;text-anchor:middle;"
     sodipodi:linespacing="125%">Buses</text>
  <text
     xml:space="preserve"
     style="font-style:normal;font-weight:normal;font-size:40px;line-height:125%;font-family:sans-serif;letter-spacing:0px;word-spacing:0px;fill:#000000;fill-opacity:1;stroke:none;stroke-width:1px;stroke-linecap:butt;stroke-linejoin:miter;stroke-opacity:1"
     x="450"
     y="560"
     id="text7507"
     sodipodi:linespacing="125%"><tspan
       sodipodi:role="line"
       id="tspan7509"
       x="450"
       y="560" /></text>
  <text
     id="text3171-9-7-9-5"
     x="96.838379"
     y="551.18408"
     font-size="32px"
     style="font-style:normal;font-variant:normal;font-weight:500;font-stretch:normal;font-size:30px;line-height:125%;font-family:Ubuntu;-inkscape-font-specification:'Ubuntu, Medium';text-align:start;writing-mode:lr;text-anchor:start;"
     sodipodi:linespacing="125%">Trains</text>
  <text
     id="text3171-9-7-9-6"
     x="15.232471"
     y="609.10876"
     font-size="24px"
     style="font-style:normal;font-variant:normal;font-weight:normal;font-stretch:normal;font-size:26.25px;line-height:125%;font-family:Ubuntu;-inkscape-font-specification:'Ubuntu, Normal';text-align:start;writing-mode:lr-tb;text-anchor:start"
     sodipodi:linespacing="125%">TRAIN0</text>
  <text
     id="text3171-9-7-9-7"
     x="15.094432"
     y="649.625"
     font-size="20px"
     style="font-style:normal;font-variant:normal;font-weight:normal;font-stretch:normal;font-size:26.25px;line-height:125%;font-family:Ubuntu;-inkscape-font-specification:'Ubuntu, Normal';text-align:start;writing-mode:lr-tb;text-anchor:start"
     sodipodi:linespacing="125%">TRAIN1</text>
  <text
     id="text3171-9-7-9-8"
     x="15.201846"
     y="689.80627"
     font-size="24px"
     style="font-style:normal;font-variant:normal;font-weight:normal;font-stretch:normal;font-size:26.25px;line-height:125%;font-family:Ubuntu;-inkscape-font-specification:'Ubuntu, Normal';text-align:start;writing-mode:lr-tb;text-anchor:start"
     sodipodi:linespacing="125%">TRAIN2</text>
  <text
     id="text3171-9-7-9-9"
     x="14.926593"
     y="729.61157"
     font-size="24px"
     style="font-style:normal;font-variant:normal;font-weight:normal;font-stretch:normal;font-size:26.25px;line-height:125%;font-family:Ubuntu;-inkscape-font-specification:'Ubuntu, Normal';text-align:start;writing-mode:lr-tb;text-anchor:start"
     sodipodi:linespacing="125%">TRAIN3</text>
  <text
     sodipodi:linespacing="125%"
     style="font-style:normal;font-variant:normal;font-weight:300;font-stretch:normal;font-size:18.75px;line-height:125%;font-family:Ubuntu;-inkscape-font-specification:'Ubuntu, Light';text-align:start;writing-mode:lr-tb;text-anchor:start"
     font-size="24px"
     y="606.49689"
     x="198.38257"
     id="text4302">
    <tspan
       sodipodi:role="line"
       id="tspan4338"
       x="198.38257"
       y="606.49689">TRAINTIME0</tspan>
  </text>
  <text
     id="text4306"
     x="198.38257"
     y="646.49689"
     font-size="24px"
     style="font-style:normal;font-variant:normal;font-weight:300;font-stretch:normal;font-size:18.75px;line-height:125%;font-family:Ubuntu;-inkscape-font-specification:'Ubuntu, Light';text-align:start;writing-mode:lr-tb;text-anchor:start"
     sodipodi:linespacing="125%">
    <tspan
       sodipodi:role="line"
       id="tspan4340"
       x="198.38257"
       y="646.49689">TRAINTIME1</tspan>
  </text>
  <text
     sodipodi:linespacing="125%"
     style="font-style:normal;font-variant:normal;font-weight:300;font-stretch:normal;font-size:18.75px;line-height:125%;font-family:Ubuntu;-inkscape-font-specification:'Ubuntu, Light';text-align:start;writing-mode:lr-tb;text-anchor:start"
     font-size="24px"
     y="686.49689"
     x="198.38257"
     id="text4310">
    <tspan
       sodipodi:role="line"
       id="tspan4342"
       x="198.38257"
       y="686.49689">TRAINTIME3</tspan>
  </text>
  <text
     id="text4314"
     x="198.38257"
     y="726.49689"
     font-size="24px"
     style="font-style:normal;font-variant:normal;font-weight:300;font-stretch:normal;font-size:18.75px;line-height:125%;font-family:Ubuntu;-inkscape-font-specification:'Ubuntu, Light';text-align:start;writing-mode:lr-tb;text-anchor:start"
     sodipodi:linespacing="125%">
    <tspan
       sodipodi:role="line"
       id="tspan4344"
       x="198.38257"
       y="726.49689">TRAINTIME4</tspan>
  </text>
  <text
     sodipodi:linespacing="125%"
     style="font-style:normal;font-variant:normal;font-weight:300;font-stretch:normal;font-size:18.75px;line-height:125%;font-family:Ubuntu;-inkscape-font-specification:'Ubuntu, Light';text-align:start;writing-mode:lr-tb;text-anchor:start"
     font-size="24px"
     y="606.49689"
     x="500.4801"
     id="text4324">
    <tspan
       sodipodi:role="line"
       id="tspan4334"
       x="500.4801"
       y="606.49689">BUSTIME0</tspan>
  </text>
  <text
     id="text4328"
     x="500.4801"
     y="646.49689"
     font-size="24px"
     style="font-style:normal;font-variant:normal;font-weight:300;font-stretch:normal;font-size:18.75px;line-height:125%;font-family:Ubuntu;-inkscape-font-specification:'Ubuntu, Light';text-align:start;writing-mode:lr-tb;text-anchor:start"
     sodipodi:linespacing="125%">
    <tspan
       sodipodi:role="line"
       id="tspan4346"
       x="500.4801"
       y="646.49689">BUSTIME1</tspan>
  </text>
  <text
     sodipodi:linespacing="125%"
     style="font-style:normal;font-variant:normal;font-weight:normal;font-stretch:normal;font-size:26.25px;line-height:125%;font-family:Ubuntu;-inkscape-font-specification:'Ubuntu, Normal';text-align:start;writing-mode:lr-tb;text-anchor:start"
     font-size="24px"
     y="689.10876"
     x="328.03571"
     id="text4348">
    <tspan
       sodipodi:role="line"
       id="tspan4354"
       x="328.03571"
       y="689.10876">BUS2</tspan>
  </text>
  <text
     sodipodi:linespacing="125%"
     style="font-style:normal;font-variant:normal;font-weight:300;font-stretch:normal;font-size:18.75px;line-height:125%;font-family:Ubuntu;-inkscape-font-specification:'Ubuntu, Light';text-align:start;writing-mode:lr-tb;text-anchor:start"
     font-size="24px"
     y="686.49689"
     x="500.4801"
     id="text4350">
    <tspan
       sodipodi:role="line"
       id="tspan4356"
       x="500.4801"
       y="686.49689">BUSTIME2</tspan>
  </text>
</svg>
